<svg width="27" height="26" viewBox="0 0 27 26" fill="none" xmlns="http://www.w3.org/2000/svg">
<g id="Group">
<path id="Vector" d="M3.83483 14.1463C3.04848 14.6391 2.40431 15.3285 1.96597 16.1465C1.52764 16.9644 1.31031 17.8825 1.33546 18.8102C1.3606 19.7378 1.62736 20.6429 2.10937 21.4359C2.59138 22.2288 3.27196 22.8823 4.08385 23.3318C4.89575 23.7812 5.81086 24.011 6.73876 23.9985C7.66667 23.986 8.57525 23.7316 9.37472 23.2604C10.1742 22.7892 10.8369 22.1176 11.2973 21.3119C11.7578 20.5062 12 19.5943 12.0002 18.6663H20.0002M17.4215 23.3357C18.1339 23.7289 18.9267 23.9538 19.7394 23.9934C20.5521 24.0329 21.3631 23.886 22.1103 23.5638C22.8575 23.2417 23.521 22.7528 24.0502 22.1347C24.5793 21.5166 24.96 20.7856 25.1631 19.9977C25.3663 19.2098 25.3864 18.3859 25.222 17.589C25.0577 16.7921 24.7132 16.0434 24.2149 15.4002C23.7166 14.7569 23.0777 14.2362 22.3472 13.8779C21.6167 13.5196 20.8138 13.3332 20.0002 13.333C19.0588 13.333 18.1015 13.5717 17.3335 13.9997L13.3335 6.66634M18.6668 6.66634C18.6668 5.25185 18.1049 3.8953 17.1047 2.8951C16.1045 1.89491 14.748 1.33301 13.3335 1.33301C11.919 1.33301 10.5625 1.89491 9.56226 2.8951C8.56207 3.8953 8.00016 5.25185 8.00016 6.66634C8.00016 8.67434 9.02683 10.4237 10.6668 11.333L6.66683 18.6663" stroke="white" stroke-width="2.5" stroke-linecap="round" stroke-linejoin="round"/>
</g>
</svg>
