<svg width="33" height="32" viewBox="0 0 33 32" fill="none" xmlns="http://www.w3.org/2000/svg">
<path d="M16.7668 32C25.6034 32 32.7668 24.8366 32.7668 16C32.7668 7.16344 25.6034 0 16.7668 0C7.93029 0 0.766846 7.16344 0.766846 16C0.766846 24.8366 7.93029 32 16.7668 32Z" fill="#4B96F7"/>
<path d="M16.3878 5.04932C15.7333 5.23141 15.1919 5.63497 14.4931 6.46668C14.3651 6.62417 14.1683 6.81118 14.06 6.885C13.8828 6.9982 13.8188 7.01296 13.4743 7.00804C13.2332 7.00312 12.9084 6.94898 12.6082 6.86532C12.1849 6.75213 12.0668 6.73736 11.5845 6.75705C11.1514 6.77673 10.9743 6.81118 10.6839 6.91945C10.3689 7.03757 10.2902 7.09662 10.0687 7.35746C9.62089 7.89881 9.44372 8.41064 9.35513 9.42937C9.32561 9.72465 9.26655 10.0888 9.21734 10.2365C9.13859 10.4629 9.08446 10.5318 8.85315 10.6942C8.70551 10.7975 8.38562 10.9599 8.13955 11.0534C7.31275 11.3782 6.9092 11.6735 6.51057 12.2592C6.28418 12.5889 6.27434 12.6184 6.25465 13.0121C6.2202 13.6913 6.37277 14.1933 6.85506 14.961C7.00271 15.1923 7.17003 15.5221 7.22909 15.6894L7.33736 15.9896L7.23401 16.3095C7.17495 16.4867 7.03716 16.7721 6.92889 16.9394C6.39245 17.8056 6.26942 18.1599 6.26942 18.8785V19.4198L6.45643 19.7052C6.83046 20.286 7.35213 20.6895 8.08049 20.9651C8.53326 21.1325 9.06477 21.4474 9.13859 21.5951C9.24194 21.787 9.34529 22.2988 9.38958 22.8648C9.45356 23.6965 9.67503 24.2526 10.1278 24.7251C10.6101 25.2369 11.5845 25.3944 12.618 25.1237C12.9084 25.0499 13.2627 24.9957 13.4842 24.9908C13.9271 24.981 14.0255 25.04 14.4931 25.5814C15.246 26.4476 15.7234 26.7822 16.437 26.9545C16.8455 27.0529 17.1408 26.9988 17.7117 26.7232C18.1251 26.5263 18.504 26.1867 19.0601 25.5322C19.1881 25.3747 19.3849 25.1877 19.4932 25.1139C19.6704 25.0007 19.7344 24.9859 20.0789 24.9908C20.32 24.9957 20.6448 25.0499 20.945 25.1335C21.3683 25.2467 21.4864 25.2615 21.9687 25.2418C22.9579 25.1975 23.3762 24.9515 23.7847 24.169C24.0209 23.726 24.1046 23.3914 24.1538 22.7368C24.1784 22.4268 24.2325 22.038 24.2817 21.8657C24.3654 21.5754 24.39 21.5409 24.6656 21.3539C24.828 21.2456 25.1627 21.0734 25.4137 20.975C25.6646 20.8716 25.9747 20.7289 26.1076 20.6502C26.4324 20.4631 26.9541 19.9218 27.1312 19.597C27.269 19.3411 27.269 19.3214 27.2444 18.7849C27.2198 18.1698 27.1115 17.8007 26.8409 17.3725C26.5603 16.9247 26.3832 16.5752 26.2995 16.275C26.2208 16.0093 26.2208 15.9748 26.2995 15.7386C26.3979 15.4335 26.5899 15.0398 26.7424 14.8429C26.8901 14.646 27.0771 14.2622 27.1903 13.9324C27.2592 13.7356 27.2838 13.519 27.2838 13.1204V12.5791L27.0968 12.2936C26.7375 11.7424 26.1863 11.2995 25.5761 11.078C25.1233 10.9156 24.6804 10.6892 24.513 10.5416C24.3359 10.3743 24.2276 9.95596 24.1636 9.15869C24.1046 8.50414 23.9865 8.10551 23.7207 7.69703C23.3959 7.19997 23.2433 7.0671 22.8053 6.9293C22.0966 6.70783 21.6094 6.71768 20.7137 6.96867C20.5661 7.00804 20.2757 7.04249 20.069 7.04249C19.7344 7.04249 19.6753 7.02772 19.4981 6.89977C19.3899 6.82103 19.193 6.62909 19.0601 6.47653C18.3219 5.61036 18.0316 5.36921 17.4459 5.14775C17.0227 4.99027 16.7126 4.96074 16.3878 5.04932ZM16.9931 6.64385C17.0719 6.69307 17.4459 7.05725 17.8298 7.44604C18.3957 8.02677 18.5877 8.18917 18.8731 8.33682C19.4686 8.64194 20.197 8.68624 21.0681 8.46477C21.5405 8.34666 21.9785 8.29744 22.2098 8.34174C22.3673 8.37127 22.3919 8.39587 22.4608 8.62718C22.5002 8.76498 22.5592 9.12424 22.5888 9.42444C22.7069 10.6007 22.9431 11.1961 23.4894 11.6981C23.7699 11.959 23.9618 12.082 24.5967 12.3871C25.5957 12.8743 25.7335 12.9679 25.7335 13.1647C25.7335 13.3468 25.5761 13.6962 25.3005 14.1342C24.8674 14.8183 24.6164 15.6402 24.6754 16.1668C24.7247 16.5998 24.9166 17.156 25.1725 17.5989C25.5022 18.1747 25.7188 18.6127 25.7532 18.7899C25.7828 18.9227 25.768 18.9572 25.6253 19.0655C25.4284 19.2131 25.1233 19.3755 24.4934 19.6659C23.9471 19.9218 23.3368 20.3795 23.1449 20.6846C22.9382 21.0094 22.7413 21.6098 22.6823 22.0872C22.5642 23.0075 22.4805 23.4554 22.4067 23.5685C22.3279 23.6867 22.3083 23.6867 21.9244 23.662C21.7078 23.6473 21.3387 23.5932 21.1074 23.5341C20.1674 23.3126 19.4686 23.352 18.8731 23.667C18.5926 23.8146 18.3761 23.9967 17.7609 24.6217C17.2884 25.0942 16.9439 25.4042 16.8603 25.4239C16.6634 25.4731 16.5502 25.3845 15.7431 24.5627C15.0836 23.8934 14.9951 23.8195 14.5915 23.6227L14.1486 23.4061L13.5826 23.4111C13.2037 23.416 12.8346 23.4554 12.495 23.5243C11.7519 23.6817 11.304 23.7113 11.2056 23.6079C11.1072 23.5144 11.0333 23.1847 10.9644 22.5498C10.8365 21.3785 10.6052 20.7978 10.0589 20.2958C9.77345 20.0251 9.58644 19.9119 8.95158 19.6068C7.97222 19.1344 7.81966 19.031 7.81966 18.8391C7.81966 18.6914 8.04604 18.2042 8.34133 17.7219C8.70551 17.1314 8.93682 16.2947 8.87776 15.8026C8.82362 15.3793 8.63169 14.8331 8.3807 14.4C8.07065 13.8635 7.77044 13.2434 7.77044 13.1401C7.77044 12.9875 8.11986 12.771 9.05985 12.333C9.59136 12.0869 10.2164 11.6194 10.3935 11.3339C10.6002 11.0141 10.7823 10.4776 10.8512 10.0199C10.8906 9.77386 10.9546 9.3457 10.994 9.06518C11.0333 8.77974 11.1022 8.4943 11.1465 8.43032C11.2253 8.31221 11.24 8.31221 11.6288 8.33682C11.8454 8.35158 12.2145 8.40572 12.4458 8.46477C13.3808 8.68624 14.0846 8.64686 14.6801 8.33682C14.9606 8.18917 15.1673 8.012 15.7234 7.44604C16.4223 6.73736 16.6388 6.55035 16.7766 6.55035C16.816 6.55035 16.9144 6.59464 16.9931 6.64385Z" fill="white"/>
<path d="M20.0247 12.8989C19.9558 12.9285 18.9322 13.9177 17.751 15.1037L15.5955 17.2544L14.7982 16.4571C13.937 15.6057 13.8533 15.5516 13.4448 15.6303C13.2037 15.6746 12.9084 15.9699 12.8641 16.211C12.7804 16.6392 12.805 16.6687 14.06 17.9286C15.059 18.9276 15.251 19.0999 15.4134 19.1245C15.8661 19.2082 15.753 19.3066 18.4892 16.5752C20.3003 14.7641 21.0238 14.0112 21.0631 13.8881C21.1714 13.5584 21.0533 13.2041 20.7531 12.9826C20.6005 12.8694 20.2068 12.8251 20.0247 12.8989Z" fill="white"/>
</svg>
