<svg xmlns="http://www.w3.org/2000/svg" width="25" height="25" viewBox="0 0 25 25" fill="none">
  <path d="M6.46577 14.0936L4.19695 12.0453L2.14865 14.3141" stroke="white" stroke-width="0.845029" stroke-linecap="round" stroke-linejoin="round"/>
  <path d="M23.4082 10.457L21.334 12.7022L19.0888 10.6281" stroke="white" stroke-width="0.845029" stroke-linecap="round" stroke-linejoin="round"/>
  <mask id="path-3-inside-1_987_179" fill="white">
    <path d="M21.9477 12.26C21.9477 10.0495 21.1494 7.91332 19.6997 6.24452C18.2501 4.57572 16.2465 3.48656 14.0577 3.17742C11.8689 2.86828 9.64208 3.35997 7.78695 4.56201C5.93181 5.76406 4.57316 7.5956 3.96096 9.71966L5.15666 10.0643C5.68581 8.22837 6.86015 6.6453 8.46361 5.60632C10.0671 4.56735 11.9918 4.14236 13.8837 4.40956C15.7756 4.67676 17.5073 5.61817 18.7603 7.06058C20.0133 8.503 20.7033 10.3494 20.7033 12.26H21.9477Z"/>
  </mask>
  <path d="M21.9477 12.26C21.9477 10.0495 21.1494 7.91332 19.6997 6.24452C18.2501 4.57572 16.2465 3.48656 14.0577 3.17742C11.8689 2.86828 9.64208 3.35997 7.78695 4.56201C5.93181 5.76406 4.57316 7.5956 3.96096 9.71966L5.15666 10.0643C5.68581 8.22837 6.86015 6.6453 8.46361 5.60632C10.0671 4.56735 11.9918 4.14236 13.8837 4.40956C15.7756 4.67676 17.5073 5.61817 18.7603 7.06058C20.0133 8.503 20.7033 10.3494 20.7033 12.26H21.9477Z" fill="#D9D9D9" stroke="white" stroke-width="10.1403" mask="url(#path-3-inside-1_987_179)"/>
  <mask id="path-4-inside-2_987_179" fill="white">
    <path d="M3.60229 12.4058C3.63064 14.6162 4.45625 16.7419 5.9272 18.392C7.39816 20.0421 9.41551 21.1054 11.6081 21.3865C13.8007 21.6675 16.021 21.1473 17.8606 19.9216C19.7001 18.6958 21.0352 16.847 21.6201 14.7153L20.4299 14.3887C19.9237 16.2336 18.7683 17.8337 17.1762 18.8945C15.5842 19.9553 13.6626 20.4055 11.765 20.1623C9.86745 19.9191 8.12153 18.9988 6.8485 17.5707C5.57547 16.1427 4.86095 14.3029 4.83641 12.39L3.60229 12.4058Z"/>
  </mask>
  <path d="M3.60229 12.4058C3.63064 14.6162 4.45625 16.7419 5.9272 18.392C7.39816 20.0421 9.41551 21.1054 11.6081 21.3865C13.8007 21.6675 16.021 21.1473 17.8606 19.9216C19.7001 18.6958 21.0352 16.847 21.6201 14.7153L20.4299 14.3887C19.9237 16.2336 18.7683 17.8337 17.1762 18.8945C15.5842 19.9553 13.6626 20.4055 11.765 20.1623C9.86745 19.9191 8.12153 18.9988 6.8485 17.5707C5.57547 16.1427 4.86095 14.3029 4.83641 12.39L3.60229 12.4058Z" fill="#D9D9D9" stroke="white" stroke-width="10.1403" mask="url(#path-4-inside-2_987_179)"/>
  <path d="M14.0217 12.1463L14.0244 12.1478C14.1703 11.8878 14.2612 11.6038 14.2971 11.2956H15.1534V11.303L15.1563 11.2935L15.3667 10.5946L15.3639 10.5938L15.361 10.5929L15.3539 10.5908H14.2877C14.2456 10.2912 14.1538 10.0177 14.0124 9.77032L14.0098 9.77181M14.0217 12.1463L14.0244 12.1478C13.8334 12.4899 13.5378 12.7616 13.1376 12.963L13.1376 12.963C12.74 13.1618 12.2325 13.2611 11.6155 13.2611H11.3361L14.2702 16.7068L14.2719 16.7087H14.2709V16.7683H14.2679V16.7713H13.3427H13.3392L13.3405 16.7702L10.2194 13.1052L10.2178 13.1033L10.2187 13.1033L10.2138 12.7846V12.5941V12.5911V12.5881H11.5797C11.9924 12.5881 12.3441 12.5285 12.6348 12.4096C12.9255 12.288 13.1473 12.1084 13.3005 11.8707L13.3005 11.8707C13.4083 11.7063 13.4789 11.5146 13.5121 11.2956H10.1683L10.1611 11.2935L10.1582 11.2926L10.1553 11.2918L10.3618 10.5929L10.3647 10.5832V10.5908H13.4986C13.4345 10.2567 13.2839 9.98187 13.0469 9.76608L13.0469 9.76607C12.7551 9.49585 12.3484 9.34778 11.8265 9.32218M14.0217 12.1463C13.8311 12.4878 13.536 12.7591 13.1363 12.9603C12.7392 13.1589 12.2323 13.2581 11.6155 13.2581H11.3335L14.2941 11.2956C14.2582 11.6033 14.1675 11.8868 14.0217 12.1463ZM11.8265 9.32218L10.987 9.31822L10.9869 9.31817H10.9762L10.9762 9.31817L10.1681 9.31817L10.1611 9.31604L10.1582 9.31517L10.1553 9.3143L10.3618 8.6353L10.3647 8.62586V8.63317H11.1645L11.1668 8.62507V8.63317H11.6591H15.3815L15.3888 8.63532L15.3917 8.63617L15.3945 8.63702L15.1881 9.33587L15.1851 9.34578L15.1852 9.33802L13.6778 9.33091C13.8099 9.46128 13.9214 9.60776 14.0124 9.77034L14.0098 9.77181M11.8265 9.32218L11.8829 9.32245C12.3784 9.35569 12.7671 9.50283 13.0489 9.76387M11.8265 9.32218L13.0489 9.76387M14.0098 9.77181C14.1509 10.0187 14.2426 10.2917 14.2847 10.5908L13.6735 9.33089C13.8064 9.46161 13.9185 9.60858 14.0098 9.77181ZM13.0489 9.76387C13.2866 9.98027 13.4375 10.2559 13.5017 10.5908L13.0489 9.76387ZM15.1852 9.33502L13.6748 9.3279L15.1852 9.33502Z" fill="white" stroke="white" stroke-width="0.006"/>
</svg>