<svg width="32" height="128" viewBox="0 0 32 128" fill="none" xmlns="http://www.w3.org/2000/svg">
<path fill-rule="evenodd" clip-rule="evenodd" d="M9.66677 105.667V105.507C9.66677 102.616 11.6236 100.093 14.4228 99.3729C15.4575 99.1068 16.5427 99.1068 17.5774 99.3729C20.3766 100.093 22.3334 102.616 22.3334 105.507V105.667H24.3349C25.0966 105.667 25.7431 106.225 25.8535 106.979L26.1451 108.969C26.7192 112.887 26.7192 116.867 26.1451 120.785C25.8679 122.677 24.3421 124.14 22.4401 124.337L21.6016 124.424C17.8772 124.811 14.1229 124.811 10.3986 124.424L9.5601 124.337C7.65805 124.14 6.13233 122.677 5.8551 120.785C5.28105 116.867 5.28105 112.887 5.8551 108.969L6.14667 106.979C6.2571 106.225 6.90356 105.667 7.66526 105.667H9.66677ZM14.9209 101.31C15.6289 101.128 16.3713 101.128 17.0793 101.31C18.9946 101.802 20.3334 103.529 20.3334 105.507V105.667H11.6668V105.507C11.6668 103.529 13.0056 101.802 14.9209 101.31ZM9.66677 107.667V110.667C9.66677 111.219 10.1145 111.667 10.6668 111.667C11.2191 111.667 11.6668 111.219 11.6668 110.667V107.667H20.3334V110.667C20.3334 111.219 20.7812 111.667 21.3334 111.667C21.8857 111.667 22.3334 111.219 22.3334 110.667V107.667H23.9329L24.1662 109.259C24.7121 112.984 24.7121 116.77 24.1662 120.495C24.0216 121.482 23.2259 122.245 22.2338 122.348L21.3953 122.435C17.8081 122.807 14.1921 122.807 10.6049 122.435L9.7664 122.348C8.77434 122.245 7.97857 121.482 7.83398 120.495C7.28809 116.77 7.28809 112.984 7.83398 109.259L8.06726 107.667H9.66677Z" fill="#132644"/>
<path fill-rule="evenodd" clip-rule="evenodd" d="M11.0001 12C11.0001 9.23858 13.2387 7 16.0001 7C18.7615 7 21.0001 9.23858 21.0001 12C21.0001 14.7614 18.7615 17 16.0001 17C13.2387 17 11.0001 14.7614 11.0001 12ZM16.0001 9C14.3432 9 13.0001 10.3431 13.0001 12C13.0001 13.6569 14.3432 15 16.0001 15C17.6569 15 19.0001 13.6569 19.0001 12C19.0001 10.3431 17.6569 9 16.0001 9Z" fill="#132644"/>
<path fill-rule="evenodd" clip-rule="evenodd" d="M7.2753 10.8363C7.64031 6.40804 11.3408 3 15.7841 3H16.2161C20.6594 3 24.3599 6.40804 24.7249 10.8363C24.9205 13.21 24.1873 15.567 22.6797 17.4108L17.8866 23.2726C16.9116 24.465 15.0886 24.465 14.1136 23.2726L9.32051 17.4108C7.81285 15.567 7.07964 13.21 7.2753 10.8363ZM15.7841 5C12.3817 5 9.54804 7.60968 9.26854 11.0006C9.11544 12.8579 9.68914 14.7021 10.8688 16.1448L15.6619 22.0066C15.8367 22.2204 16.1635 22.2204 16.3383 22.0066L21.1314 16.1448C22.311 14.7021 22.8847 12.8579 22.7316 11.0006C22.4521 7.60968 19.6185 5 16.2161 5H15.7841Z" fill="#132644"/>
<path d="M10.2278 21.7805C10.4748 21.2866 10.2746 20.6859 9.78063 20.4389C9.28665 20.1919 8.68598 20.3921 8.43899 20.8861L5.77232 26.2194C5.61733 26.5294 5.63389 26.8976 5.8161 27.1924C5.9983 27.4872 6.32017 27.6667 6.66675 27.6667H25.3334C25.68 27.6667 26.0019 27.4872 26.1841 27.1924C26.3663 26.8976 26.3828 26.5294 26.2278 26.2194L23.5612 20.8861C23.3142 20.3921 22.7135 20.1919 22.2195 20.4389C21.7256 20.6859 21.5253 21.2866 21.7723 21.7805L23.7154 25.6667H8.28478L10.2278 21.7805Z" fill="#132644"/>
<path fill-rule="evenodd" clip-rule="evenodd" d="M19.4759 62.3302C20.5684 63.1755 20.5684 64.8248 19.4759 65.6701C16.5971 67.8976 13.3826 69.6533 9.95258 70.8715L9.33117 71.0922C7.96648 71.5769 6.53073 70.6536 6.34676 69.2508C5.89385 65.7974 5.89385 62.2029 6.34676 58.7495C6.53073 57.3467 7.96647 56.4234 9.33117 56.9081L9.95257 57.1288C13.3826 58.347 16.5971 60.1027 19.4759 62.3302ZM18.252 64.0884C18.3097 64.0437 18.3097 63.9566 18.252 63.912C15.5408 61.8142 12.5135 60.1607 9.28321 59.0135L8.66181 58.7928C8.52821 58.7453 8.35257 58.8358 8.32978 59.0095C7.89951 62.2903 7.89951 65.71 8.32978 68.9908C8.35257 69.1645 8.5282 69.255 8.66181 69.2076L9.28321 68.9869C12.5135 67.8396 15.5408 66.1861 18.252 64.0884Z" fill="#132644"/>
<path fill-rule="evenodd" clip-rule="evenodd" d="M24 56.3335C24.5523 56.3335 25 56.7812 25 57.3335V70.6668C25 71.2191 24.5523 71.6668 24 71.6668C23.4478 71.6668 23 71.2191 23 70.6668V57.3335C23 56.7812 23.4478 56.3335 24 56.3335Z" fill="#132644"/>
</svg>
