<svg width="32" height="272" viewBox="0 0 32 272" fill="none" xmlns="http://www.w3.org/2000/svg">
<path d="M10.6665 105.667C11.2188 105.667 11.6665 106.114 11.6665 106.667V108.333H13.3332C13.8855 108.333 14.3332 108.781 14.3332 109.333C14.3332 109.886 13.8855 110.333 13.3332 110.333H11.6665V112C11.6665 112.552 11.2188 113 10.6665 113C10.1142 113 9.66652 112.552 9.66652 112V110.333H7.99986C7.44757 110.333 6.99986 109.886 6.99986 109.333C6.99986 108.781 7.44757 108.333 7.99986 108.333H9.66652V106.667C9.66652 106.114 10.1142 105.667 10.6665 105.667Z" fill="#132644"/>
<path d="M22.6665 111.667C22.6665 110.93 22.0696 110.333 21.3332 110.333C20.5968 110.333 19.9999 110.93 19.9999 111.667V112C19.9999 112.736 20.5968 113.333 21.3332 113.333C22.0696 113.333 22.6665 112.736 22.6665 112V111.667Z" fill="#132644"/>
<path d="M21.3332 105.333C22.0696 105.333 22.6665 105.93 22.6665 106.667V107C22.6665 107.736 22.0696 108.333 21.3332 108.333C20.5968 108.333 19.9999 107.736 19.9999 107V106.667C19.9999 105.93 20.5968 105.333 21.3332 105.333Z" fill="#132644"/>
<path d="M25.3332 109.333C25.3332 110.07 24.7362 110.667 23.9999 110.667H23.6665C22.9301 110.667 22.3332 110.07 22.3332 109.333C22.3332 108.597 22.9301 108 23.6665 108H23.9999C24.7362 108 25.3332 108.597 25.3332 109.333Z" fill="#132644"/>
<path d="M18.9999 110.667C19.7362 110.667 20.3332 110.07 20.3332 109.333C20.3332 108.597 19.7362 108 18.9999 108H18.6665C17.9301 108 17.3332 108.597 17.3332 109.333C17.3332 110.07 17.9301 110.667 18.6665 110.667H18.9999Z" fill="#132644"/>
<path fill-rule="evenodd" clip-rule="evenodd" d="M16.9999 100C16.9999 99.4477 16.5521 99 15.9999 99C15.4476 99 14.9999 99.4477 14.9999 100V101.983C13.0811 102.009 11.163 102.11 9.25022 102.288L8.80809 102.329C5.61915 102.624 3.16358 105.272 3.1093 108.474L3.09318 109.425C3.03011 113.147 3.33008 116.866 3.98885 120.529C4.31546 122.345 5.89591 123.667 7.74125 123.667H8.03598C9.68313 123.667 11.1755 122.696 11.8434 121.19L13.2575 118.002C14.3123 115.624 17.6874 115.624 18.7422 118.002L20.1564 121.19C20.8242 122.696 22.3166 123.667 23.9637 123.667H24.2585C26.1038 123.667 27.6843 122.345 28.0109 120.529C28.6696 116.866 28.9696 113.147 28.9065 109.425L28.8904 108.474C28.8361 105.272 26.3806 102.624 23.1916 102.329L22.7495 102.288C20.8367 102.11 18.9187 102.009 16.9999 101.983V100ZM9.43469 104.279C13.8021 103.875 18.1976 103.875 22.565 104.279L23.0072 104.32C25.1803 104.521 26.8537 106.326 26.8907 108.508L26.9068 109.459C26.9677 113.051 26.6782 116.64 26.0424 120.175C25.8872 121.038 25.1358 121.667 24.2585 121.667H23.9637C23.1075 121.667 22.3317 121.162 21.9846 120.379L20.5705 117.191C18.8124 113.227 13.1873 113.227 11.4292 117.191L10.0151 120.379C9.66798 121.162 8.89219 121.667 8.03598 121.667H7.74125C6.86394 121.667 6.11255 121.038 5.95727 120.175C5.32152 116.64 5.03203 113.051 5.09289 109.459L5.10902 108.508C5.146 106.326 6.8194 104.521 8.99256 104.32L9.43469 104.279Z" fill="#132644"/>
<path d="M13.3333 209.667C13.8855 209.667 14.3333 210.115 14.3333 210.667V213.334C14.3333 213.886 13.8855 214.334 13.3333 214.334C12.781 214.334 12.3333 213.886 12.3333 213.334V210.667C12.3333 210.115 12.781 209.667 13.3333 209.667Z" fill="#132644"/>
<path d="M19.6666 210.667C19.6666 210.115 19.2189 209.667 18.6666 209.667C18.1143 209.667 17.6666 210.115 17.6666 210.667V213.334C17.6666 213.886 18.1143 214.334 18.6666 214.334C19.2189 214.334 19.6666 213.886 19.6666 213.334V210.667Z" fill="#132644"/>
<path fill-rule="evenodd" clip-rule="evenodd" d="M12.8659 196.5C13.1421 196.022 12.9782 195.41 12.4999 195.134C12.0216 194.858 11.41 195.022 11.1339 195.5L8.46722 200.119C8.42727 200.188 8.39653 200.26 8.37462 200.334H7.99992C5.97487 200.334 4.33325 201.975 4.33325 204C4.33325 205.146 4.85854 206.168 5.68138 206.841L6.57063 212.954L7.16629 215.745C7.52318 217.417 8.88823 218.687 10.5817 218.923C14.1765 219.423 17.8233 219.423 21.4181 218.923C23.1116 218.687 24.4767 217.417 24.8336 215.745L25.4292 212.954L26.3185 206.841C27.1413 206.168 27.6666 205.146 27.6666 204C27.6666 201.975 26.025 200.334 23.9999 200.334H23.6252C23.6033 200.26 23.5726 200.188 23.5326 200.119L20.8659 195.5C20.5898 195.022 19.9782 194.858 19.4999 195.134C19.0216 195.41 18.8578 196.022 19.1339 196.5L21.3471 200.334H10.6528L12.8659 196.5ZM24.1779 207.663C24.1189 207.665 24.0596 207.667 23.9999 207.667H7.99992C7.94026 207.667 7.88093 207.665 7.82196 207.663L8.54032 212.601L9.12223 215.327C9.30354 216.177 9.99702 216.822 10.8574 216.942C14.2693 217.416 17.7305 217.416 21.1425 216.942C22.0028 216.822 22.6963 216.177 22.8776 215.327L23.4595 212.601L24.1779 207.663ZM6.33325 204C6.33325 203.08 7.07944 202.334 7.99992 202.334H23.9999C24.9204 202.334 25.6666 203.08 25.6666 204C25.6666 204.921 24.9204 205.667 23.9999 205.667H7.99992C7.07944 205.667 6.33325 204.921 6.33325 204Z" fill="#132644"/>
<path fill-rule="evenodd" clip-rule="evenodd" d="M18.0773 247.379C16.9165 246.265 15.0838 246.265 13.9231 247.379L7.75448 253.298C7.60334 253.443 7.50168 253.632 7.4639 253.838C6.72506 257.867 6.67052 261.992 7.30258 266.039L7.45261 267H11.4212V258.718C11.4212 258.166 11.8689 257.718 12.4212 257.718H19.5791C20.1314 257.718 20.5791 258.166 20.5791 258.718V267H24.5477L24.6977 266.039C25.3298 261.992 25.2753 257.867 24.5364 253.838C24.4986 253.632 24.397 253.443 24.2458 253.298L18.0773 247.379ZM12.5383 245.936C14.4729 244.079 17.5274 244.079 19.462 245.936L25.6306 251.855C26.0847 252.291 26.3901 252.858 26.5036 253.477C27.283 257.727 27.3405 262.078 26.6738 266.348L26.4328 267.891C26.3331 268.529 25.7834 269 25.1374 269H19.5791C19.0268 269 18.5791 268.552 18.5791 268V259.718H13.4212V268C13.4212 268.552 12.9735 269 12.4212 269H6.86291C6.21693 269 5.66722 268.529 5.56755 267.891L5.32653 266.348C4.6598 262.078 4.71733 257.727 5.4967 253.477C5.61021 252.858 5.91566 252.291 6.36975 251.855L12.5383 245.936Z" fill="#132644"/>
<path fill-rule="evenodd" clip-rule="evenodd" d="M15.4698 24.8482C15.6404 24.9506 15.8228 24.9959 16.0001 24.9937C16.1773 24.9959 16.3597 24.9506 16.5304 24.8482L18.0441 23.94C21.0127 22.1588 24.6434 21.8679 27.8578 23.1537C29.0436 23.628 30.3334 22.7547 30.3334 21.4776V5.9324C30.3334 5.1618 29.8643 4.46884 29.1488 4.18265C25.0087 2.5266 20.3324 2.9013 16.5088 5.19546L16.0001 5.50068L15.4914 5.19546C11.6678 2.9013 6.99151 2.5266 2.85139 4.18265C2.13591 4.46884 1.66675 5.1618 1.66675 5.9324V21.4776C1.66675 22.7547 2.9566 23.628 4.14237 23.1537C7.35677 21.8679 10.9874 22.1588 13.9561 23.94L15.4698 24.8482ZM3.66675 6.01084V21.1932C7.39447 19.7958 11.5625 20.1714 14.9851 22.225L15.0001 22.234V7.23306L14.4624 6.91044C11.1971 4.95125 7.20853 4.62014 3.66675 6.01084ZM17.0151 22.225L17.0001 22.234V7.23306L17.5378 6.91044C20.8031 4.95125 24.7916 4.62014 28.3334 6.01084V21.1932C24.6057 19.7958 20.4377 20.1714 17.0151 22.225Z" fill="#132644"/>
<path d="M12.367 25.3899C9.66849 23.8157 6.33168 23.8157 3.6332 25.3899L3.49621 25.4698C3.01916 25.748 2.85802 26.3604 3.1363 26.8374C3.41458 27.3145 4.0269 27.4756 4.50395 27.1973L4.64094 27.1174C6.71669 25.9066 9.28347 25.9066 11.3592 27.1174L12.8089 27.9631C14.7809 29.1134 17.2193 29.1134 19.1913 27.9631L20.6409 27.1174C22.7167 25.9066 25.2835 25.9066 27.3592 27.1174L27.4962 27.1973C27.9733 27.4756 28.5856 27.3145 28.8639 26.8374C29.1421 26.3604 28.981 25.748 28.504 25.4698L28.367 25.3899C25.6685 23.8157 22.3317 23.8157 19.6332 25.3899L18.1835 26.2355C16.8343 27.0226 15.1659 27.0226 13.8166 26.2355L12.367 25.3899Z" fill="#132644"/>
<path d="M20.9231 77.3332H11.0769C6.84308 77.3332 4 74.4681 4 70.2014V57.7983C4 53.5316 6.84308 50.6665 11.0769 50.6665H17.1446C19.04 50.6665 20.8123 51.4107 22.1538 52.7502L25.9323 56.558C27.2739 57.8975 28 59.696 28 61.606V70.2014C28 74.4681 25.1569 77.3332 20.9231 77.3332ZM11.0769 52.527C7.90154 52.527 5.84615 54.5983 5.84615 57.7983V70.2014C5.84615 73.4014 7.90154 75.4727 11.0769 75.4727H20.9231C24.0985 75.4727 26.1538 73.4014 26.1538 70.2014V61.606C26.1538 60.1921 25.6123 58.8774 24.6154 57.8851L20.8369 54.0774C19.8523 53.0851 18.5354 52.5394 17.1323 52.5394H11.0769V52.527Z" fill="#132644"/>
<path d="M12.4777 72.0002C12.2603 72.0002 12.0428 71.9153 11.8712 71.7334L9.58218 69.3081C9.25028 68.9564 9.25028 68.3743 9.58218 68.0226L11.8712 65.5973C12.2031 65.2456 12.7524 65.2456 13.0843 65.5973C13.4162 65.9489 13.4162 66.5311 13.0843 66.8827L11.4019 68.6653L13.0843 70.4479C13.4162 70.7996 13.4162 71.3817 13.0843 71.7334C12.9127 71.9153 12.6952 72.0002 12.4777 72.0002Z" fill="#132644"/>
<path d="M19.5223 72.0002C19.3048 72.0002 19.0873 71.9153 18.9157 71.7334C18.5838 71.3817 18.5838 70.7996 18.9157 70.4479L20.5981 68.6653L18.9157 66.8827C18.5838 66.5311 18.5838 65.9489 18.9157 65.5973C19.2476 65.2456 19.7969 65.2456 20.1288 65.5973L22.4178 68.0226C22.7497 68.3743 22.7497 68.9564 22.4178 69.3081L20.1288 71.7334C19.9572 71.9153 19.7397 72.0002 19.5223 72.0002Z" fill="#132644"/>
<path d="M16.0001 173.333C15.1443 173.333 14.3381 172.9 13.7675 172.146L11.9071 169.672C11.8698 169.623 11.721 169.548 11.6466 169.548H11.0388C5.86675 169.548 2.66675 168.151 2.66675 161.2V155.015C2.66675 149.548 5.55667 146.667 11.0388 146.667H18.4807C18.9892 146.667 19.4109 147.087 19.4109 147.594C19.4109 148.101 18.9892 148.522 18.4807 148.522H11.0388C6.59853 148.522 4.52721 150.587 4.52721 155.015V161.2C4.52721 166.79 6.44969 167.693 11.0388 167.693H11.659C12.2916 167.693 13.0109 168.052 13.3954 168.559L15.2559 171.033C15.69 171.602 16.3102 171.602 16.7443 171.033L18.6047 168.559C19.014 168.015 19.659 167.693 20.3412 167.693H20.9613C25.4016 167.693 27.473 165.628 27.473 161.2V157.489C27.473 156.982 27.8947 156.561 28.4032 156.561C28.9117 156.561 29.3334 156.982 29.3334 157.489V161.2C29.3334 166.667 26.4435 169.548 20.9613 169.548H20.3412C20.2419 169.548 20.1551 169.598 20.0931 169.672L18.2326 172.146C17.6621 172.9 16.8559 173.333 16.0001 173.333Z" fill="#132644"/>
<path d="M15.9998 160C15.2532 160 14.6665 159.4 14.6665 158.667C14.6665 157.933 15.2665 157.333 15.9998 157.333C16.7332 157.333 17.3332 157.933 17.3332 158.667C17.3332 159.4 16.7465 160 15.9998 160Z" fill="#132644"/>
<path d="M21.3333 160C20.5867 160 20 159.4 20 158.667C20 157.933 20.6 157.333 21.3333 157.333C22.0667 157.333 22.6667 157.933 22.6667 158.667C22.6667 159.4 22.08 160 21.3333 160Z" fill="#132644"/>
<path d="M10.6666 160C9.91992 160 9.33325 159.4 9.33325 158.667C9.33325 157.933 9.93325 157.333 10.6666 157.333C11.3999 157.333 11.9999 157.933 11.9999 158.667C11.9999 159.4 11.4133 160 10.6666 160Z" fill="#132644"/>
<path d="M25.3333 154.667C23.1302 154.667 21.3333 152.87 21.3333 150.667C21.3333 148.463 23.1302 146.667 25.3333 146.667C27.5363 146.667 29.3333 148.463 29.3333 150.667C29.3333 152.87 27.5363 154.667 25.3333 154.667ZM25.3333 148.513C24.1517 148.513 23.1794 149.485 23.1794 150.667C23.1794 151.848 24.1517 152.82 25.3333 152.82C26.5148 152.82 27.4871 151.848 27.4871 150.667C27.4871 149.485 26.5148 148.513 25.3333 148.513Z" fill="#132644"/>
</svg>
