<svg width="32" height="128" viewBox="0 0 32 128" fill="none" xmlns="http://www.w3.org/2000/svg">
<path fill-rule="evenodd" clip-rule="evenodd" d="M25.5304 6.99984H7.11361L5.54004 4.1793C5.36341 3.86271 5.02928 3.6665 4.66675 3.6665H2.66675C2.11446 3.6665 1.66675 4.11422 1.66675 4.6665C1.66675 5.21879 2.11446 5.6665 2.66675 5.6665H4.07955L5.63247 8.45004L9.2139 16.3743L9.21758 16.3824L9.53302 17.0804L5.93724 20.9159C5.67869 21.1917 5.59775 21.5897 5.72806 21.9445C5.85837 22.2994 6.17764 22.5505 6.55323 22.5934L9.83074 22.9679C13.9303 23.4365 18.0699 23.4365 22.1695 22.9679L25.447 22.5934C25.9957 22.5307 26.3897 22.035 26.327 21.4863C26.2643 20.9376 25.7686 20.5436 25.2199 20.6063L21.9424 20.9809C17.9937 21.4322 14.0065 21.4322 10.0578 20.9809L8.75714 20.8322L11.3963 18.0171C11.4218 17.9899 11.4455 17.9616 11.4674 17.9324L12.4712 18.063C13.8778 18.246 15.2996 18.2819 16.7136 18.1701C20.0115 17.9093 23.0681 16.34 25.202 13.8119L25.9728 12.8988C25.9987 12.8682 26.0227 12.836 26.0447 12.8024L27.4812 10.6133C28.4994 9.0616 27.3863 6.99984 25.5304 6.99984ZM11.5418 15.9252C11.3212 15.8965 11.1311 15.7564 11.0382 15.5546L11.0364 15.5507L8.07573 8.99984H25.5304C25.7955 8.99984 25.9545 9.29438 25.8091 9.51605L24.4056 11.6548L23.6737 12.5219C21.8844 14.6417 19.3213 15.9576 16.5559 16.1763C15.2805 16.2772 13.998 16.2448 12.7293 16.0797L11.5418 15.9252Z" fill="#132644"/>
<path d="M8.66675 24.6665C7.56218 24.6665 6.66675 25.5619 6.66675 26.6665C6.66675 27.7711 7.56218 28.6665 8.66675 28.6665C9.77132 28.6665 10.6667 27.7711 10.6667 26.6665C10.6667 25.5619 9.77132 24.6665 8.66675 24.6665Z" fill="#132644"/>
<path d="M21.3334 26.6665C21.3334 25.5619 22.2288 24.6665 23.3334 24.6665C24.438 24.6665 25.3334 25.5619 25.3334 26.6665C25.3334 27.7711 24.438 28.6665 23.3334 28.6665C22.2288 28.6665 21.3334 27.7711 21.3334 26.6665Z" fill="#132644"/>
<path fill-rule="evenodd" clip-rule="evenodd" d="M15.4822 100.403C15.8068 100.31 16.1492 100.31 16.4739 100.403C17.1639 100.598 17.8603 100.78 18.559 100.962C21.8401 101.818 25.1724 102.687 28.1371 105.102L29.5023 106.214C30.0561 106.665 30.3332 107.332 30.3334 108V117.333C30.3334 117.886 29.8857 118.333 29.3334 118.333C28.7811 118.333 28.3334 117.886 28.3334 117.333V110.742L28.1162 110.92C27.0889 111.758 26.0171 112.409 24.9185 112.937C24.971 113.059 25.0001 113.193 25.0001 113.333V119.059C25.0001 120.57 24.0731 121.926 22.6653 122.475L17.3319 124.554C16.4754 124.888 15.5247 124.888 14.6682 124.554L9.33489 122.475C7.92704 121.926 7.00008 120.57 7.00008 119.059V113.333C7.00008 113.189 7.03065 113.052 7.08566 112.928C5.97852 112.397 4.89838 111.742 3.86307 110.899L2.49782 109.787C1.39027 108.885 1.38969 107.116 2.49628 106.213L3.88398 105.081C6.82724 102.679 10.136 101.815 13.3928 100.965C14.093 100.782 14.7909 100.6 15.4822 100.403ZM28.3334 108.001C28.3334 107.881 28.2848 107.802 28.2393 107.764L26.8741 106.652C24.0001 104.667 21.4392 103.791 18.1866 102.936C17.4714 102.748 16.736 102.555 15.9787 102.341C15.2181 102.557 14.4799 102.751 13.7624 102.94C10.5358 103.789 7.72439 104.528 5.14846 106.63L3.76075 107.763C3.71517 107.8 3.6667 107.879 3.66675 107.999C3.6668 108.119 3.71532 108.199 3.76086 108.236L5.12611 109.348C7.72388 111.464 10.561 112.209 13.8136 113.064C14.5288 113.252 15.2642 113.445 16.0215 113.659C16.782 113.444 17.5201 113.249 18.2376 113.061C21.4642 112.212 24.2758 111.472 26.8517 109.37L28.2394 108.238C28.285 108.201 28.3334 108.121 28.3334 108.001ZM18.6074 115.036C20.0738 114.653 21.5507 114.267 23.0001 113.74V119.059C23.0001 119.746 22.5787 120.362 21.9388 120.612L16.6055 122.691C16.2161 122.843 15.784 122.843 15.3947 122.691L10.0614 120.612C9.42143 120.362 9.00008 119.746 9.00008 119.059V113.728C10.4651 114.262 11.9583 114.651 13.4411 115.038C14.1398 115.22 14.8363 115.402 15.5263 115.598C15.8509 115.69 16.1934 115.69 16.518 115.597C17.2093 115.401 17.9072 115.219 18.6074 115.036Z" fill="#132644"/>
<path fill-rule="evenodd" clip-rule="evenodd" d="M14.9999 55.7174C10.131 56.2178 6.33325 60.3319 6.33325 65.333C6.33325 70.6717 10.6612 74.9996 15.9999 74.9996C21.001 74.9996 25.1151 71.2019 25.6155 66.333H15.9999C15.4476 66.333 14.9999 65.8852 14.9999 65.333V55.7174ZM4.33325 65.333C4.33325 58.8896 9.5566 53.6663 15.9999 53.6663C16.5522 53.6663 16.9999 54.114 16.9999 54.6663V64.333H26.6666C27.2189 64.333 27.6666 64.7807 27.6666 65.333C27.6666 71.7763 22.4432 76.9996 15.9999 76.9996C9.5566 76.9996 4.33325 71.7763 4.33325 65.333Z" fill="#132644"/>
<path fill-rule="evenodd" clip-rule="evenodd" d="M20.6666 54.2312V60.6663H27.1017C26.351 57.4871 23.8458 54.9819 20.6666 54.2312ZM19.9973 52.0818C24.8244 52.6825 28.6504 56.5085 29.2511 61.3356C29.342 62.0664 28.7363 62.6663 27.9999 62.6663H19.3333C18.9651 62.6663 18.6666 62.3678 18.6666 61.9996V53.333C18.6666 52.5966 19.2665 51.9909 19.9973 52.0818Z" fill="#132644"/>
</svg>
