<svg width="32" height="272" viewBox="0 0 32 272" fill="none" xmlns="http://www.w3.org/2000/svg">
<path d="M10.6665 249.667C11.2188 249.667 11.6665 250.114 11.6665 250.667V252.333H13.3332C13.8855 252.333 14.3332 252.781 14.3332 253.333C14.3332 253.886 13.8855 254.333 13.3332 254.333H11.6665V256C11.6665 256.552 11.2188 257 10.6665 257C10.1142 257 9.66652 256.552 9.66652 256V254.333H7.99986C7.44757 254.333 6.99986 253.886 6.99986 253.333C6.99986 252.781 7.44757 252.333 7.99986 252.333H9.66652V250.667C9.66652 250.114 10.1142 249.667 10.6665 249.667Z" fill="#132644"/>
<path d="M22.6665 255.667C22.6665 254.93 22.0696 254.333 21.3332 254.333C20.5968 254.333 19.9999 254.93 19.9999 255.667V256C19.9999 256.736 20.5968 257.333 21.3332 257.333C22.0696 257.333 22.6665 256.736 22.6665 256V255.667Z" fill="#132644"/>
<path d="M21.3332 249.333C22.0696 249.333 22.6665 249.93 22.6665 250.667V251C22.6665 251.736 22.0696 252.333 21.3332 252.333C20.5968 252.333 19.9999 251.736 19.9999 251V250.667C19.9999 249.93 20.5968 249.333 21.3332 249.333Z" fill="#132644"/>
<path d="M25.3332 253.333C25.3332 254.07 24.7362 254.667 23.9999 254.667H23.6665C22.9301 254.667 22.3332 254.07 22.3332 253.333C22.3332 252.597 22.9301 252 23.6665 252H23.9999C24.7362 252 25.3332 252.597 25.3332 253.333Z" fill="#132644"/>
<path d="M18.9999 254.667C19.7362 254.667 20.3332 254.07 20.3332 253.333C20.3332 252.597 19.7362 252 18.9999 252H18.6665C17.9301 252 17.3332 252.597 17.3332 253.333C17.3332 254.07 17.9301 254.667 18.6665 254.667H18.9999Z" fill="#132644"/>
<path fill-rule="evenodd" clip-rule="evenodd" d="M16.9999 244C16.9999 243.448 16.5521 243 15.9999 243C15.4476 243 14.9999 243.448 14.9999 244V245.983C13.0811 246.009 11.163 246.11 9.25022 246.288L8.80809 246.329C5.61915 246.624 3.16358 249.272 3.1093 252.474L3.09318 253.425C3.03011 257.147 3.33008 260.866 3.98885 264.529C4.31546 266.345 5.89591 267.667 7.74125 267.667H8.03598C9.68313 267.667 11.1755 266.696 11.8434 265.19L13.2575 262.002C14.3123 259.624 17.6874 259.624 18.7422 262.002L20.1564 265.19C20.8242 266.696 22.3166 267.667 23.9637 267.667H24.2585C26.1038 267.667 27.6843 266.345 28.0109 264.529C28.6696 260.866 28.9696 257.147 28.9065 253.425L28.8904 252.474C28.8361 249.272 26.3806 246.624 23.1916 246.329L22.7495 246.288C20.8367 246.11 18.9187 246.009 16.9999 245.983V244ZM9.43469 248.279C13.8021 247.875 18.1976 247.875 22.565 248.279L23.0072 248.32C25.1803 248.521 26.8537 250.326 26.8907 252.508L26.9068 253.459C26.9677 257.051 26.6782 260.64 26.0424 264.175C25.8872 265.038 25.1358 265.667 24.2585 265.667H23.9637C23.1075 265.667 22.3317 265.162 21.9846 264.379L20.5705 261.191C18.8124 257.227 13.1873 257.227 11.4292 261.191L10.0151 264.379C9.66798 265.162 8.89219 265.667 8.03598 265.667H7.74125C6.86394 265.667 6.11255 265.038 5.95727 264.175C5.32152 260.64 5.03203 257.051 5.09289 253.459L5.10902 252.508C5.146 250.326 6.8194 248.521 8.99256 248.32L9.43469 248.279Z" fill="#132644"/>
<path d="M13.3333 65.6668C13.8855 65.6668 14.3333 66.1146 14.3333 66.6668V69.3335C14.3333 69.8858 13.8855 70.3335 13.3333 70.3335C12.781 70.3335 12.3333 69.8858 12.3333 69.3335V66.6668C12.3333 66.1146 12.781 65.6668 13.3333 65.6668Z" fill="#132644"/>
<path d="M19.6666 66.6668C19.6666 66.1146 19.2189 65.6668 18.6666 65.6668C18.1143 65.6668 17.6666 66.1146 17.6666 66.6668V69.3335C17.6666 69.8858 18.1143 70.3335 18.6666 70.3335C19.2189 70.3335 19.6666 69.8858 19.6666 69.3335V66.6668Z" fill="#132644"/>
<path fill-rule="evenodd" clip-rule="evenodd" d="M12.8659 52.5002C13.1421 52.0219 12.9782 51.4103 12.4999 51.1341C12.0216 50.858 11.41 51.0219 11.1339 51.5002L8.46722 56.119C8.42727 56.1882 8.39653 56.2601 8.37462 56.3335H7.99992C5.97487 56.3335 4.33325 57.9751 4.33325 60.0002C4.33325 61.1457 4.85854 62.1685 5.68138 62.8409L6.57063 68.9538L7.16629 71.7447C7.52318 73.4168 8.88823 74.6869 10.5817 74.9226C14.1765 75.4228 17.8233 75.4228 21.4181 74.9226C23.1116 74.6869 24.4767 73.4168 24.8336 71.7447L25.4292 68.9538L26.3185 62.8409C27.1413 62.1685 27.6666 61.1457 27.6666 60.0002C27.6666 57.9751 26.025 56.3335 23.9999 56.3335H23.6252C23.6033 56.2601 23.5726 56.1882 23.5326 56.119L20.8659 51.5002C20.5898 51.0219 19.9782 50.858 19.4999 51.1341C19.0216 51.4103 18.8578 52.0219 19.1339 52.5002L21.3471 56.3335H10.6528L12.8659 52.5002ZM24.1779 63.6626C24.1189 63.6654 24.0596 63.6668 23.9999 63.6668H7.99992C7.94026 63.6668 7.88093 63.6654 7.82196 63.6626L8.54032 68.6007L9.12223 71.3272C9.30354 72.1767 9.99702 72.822 10.8574 72.9417C14.2693 73.4164 17.7305 73.4164 21.1425 72.9417C22.0028 72.822 22.6963 72.1767 22.8776 71.3272L23.4595 68.6007L24.1779 63.6626ZM6.33325 60.0002C6.33325 59.0797 7.07944 58.3335 7.99992 58.3335H23.9999C24.9204 58.3335 25.6666 59.0797 25.6666 60.0002C25.6666 60.9206 24.9204 61.6668 23.9999 61.6668H7.99992C7.07944 61.6668 6.33325 60.9206 6.33325 60.0002Z" fill="#132644"/>
<path fill-rule="evenodd" clip-rule="evenodd" d="M18.0773 103.379C16.9165 102.265 15.0838 102.265 13.9231 103.379L7.75448 109.298C7.60334 109.443 7.50168 109.632 7.4639 109.838C6.72506 113.867 6.67052 117.992 7.30258 122.039L7.45261 123H11.4212V114.718C11.4212 114.166 11.8689 113.718 12.4212 113.718H19.5791C20.1314 113.718 20.5791 114.166 20.5791 114.718V123H24.5477L24.6977 122.039C25.3298 117.992 25.2753 113.867 24.5364 109.838C24.4986 109.632 24.397 109.443 24.2458 109.298L18.0773 103.379ZM12.5383 101.936C14.4729 100.079 17.5274 100.079 19.462 101.936L25.6306 107.855C26.0847 108.291 26.3901 108.858 26.5036 109.477C27.283 113.727 27.3405 118.078 26.6738 122.348L26.4328 123.891C26.3331 124.529 25.7834 125 25.1374 125H19.5791C19.0268 125 18.5791 124.552 18.5791 124V115.718H13.4212V124C13.4212 124.552 12.9735 125 12.4212 125H6.86291C6.21693 125 5.66722 124.529 5.56755 123.891L5.32653 122.348C4.6598 118.078 4.71733 113.727 5.4967 109.477C5.61021 108.858 5.91566 108.291 6.36975 107.855L12.5383 101.936Z" fill="#132644"/>
<path fill-rule="evenodd" clip-rule="evenodd" d="M15.4698 168.848C15.6404 168.951 15.8228 168.996 16.0001 168.994C16.1773 168.996 16.3597 168.951 16.5304 168.848L18.0441 167.94C21.0127 166.159 24.6434 165.868 27.8578 167.154C29.0436 167.628 30.3334 166.755 30.3334 165.478V149.932C30.3334 149.162 29.8643 148.469 29.1488 148.183C25.0087 146.527 20.3324 146.901 16.5088 149.195L16.0001 149.501L15.4914 149.195C11.6678 146.901 6.99151 146.527 2.85139 148.183C2.13591 148.469 1.66675 149.162 1.66675 149.932V165.478C1.66675 166.755 2.9566 167.628 4.14237 167.154C7.35677 165.868 10.9874 166.159 13.9561 167.94L15.4698 168.848ZM3.66675 150.011V165.193C7.39447 163.796 11.5625 164.171 14.9851 166.225L15.0001 166.234V151.233L14.4624 150.91C11.1971 148.951 7.20853 148.62 3.66675 150.011ZM17.0151 166.225L17.0001 166.234V151.233L17.5378 150.91C20.8031 148.951 24.7916 148.62 28.3334 150.011V165.193C24.6057 163.796 20.4377 164.171 17.0151 166.225Z" fill="#132644"/>
<path d="M12.367 169.39C9.66849 167.816 6.33168 167.816 3.6332 169.39L3.49621 169.47C3.01916 169.748 2.85802 170.36 3.1363 170.837C3.41458 171.314 4.0269 171.476 4.50395 171.197L4.64094 171.117C6.71669 169.907 9.28347 169.907 11.3592 171.117L12.8089 171.963C14.7809 173.113 17.2193 173.113 19.1913 171.963L20.6409 171.117C22.7167 169.907 25.2835 169.907 27.3592 171.117L27.4962 171.197C27.9733 171.476 28.5856 171.314 28.8639 170.837C29.1421 170.36 28.981 169.748 28.504 169.47L28.367 169.39C25.6685 167.816 22.3317 167.816 19.6332 169.39L18.1835 170.236C16.8343 171.023 15.1659 171.023 13.8166 170.236L12.367 169.39Z" fill="#132644"/>
<path d="M20.9231 221.333H11.0769C6.84308 221.333 4 218.468 4 214.201V201.798C4 197.532 6.84308 194.667 11.0769 194.667H17.1446C19.04 194.667 20.8123 195.411 22.1538 196.75L25.9323 200.558C27.2739 201.898 28 203.696 28 205.606V214.201C28 218.468 25.1569 221.333 20.9231 221.333ZM11.0769 196.527C7.90154 196.527 5.84615 198.598 5.84615 201.798V214.201C5.84615 217.401 7.90154 219.473 11.0769 219.473H20.9231C24.0985 219.473 26.1538 217.401 26.1538 214.201V205.606C26.1538 204.192 25.6123 202.877 24.6154 201.885L20.8369 198.077C19.8523 197.085 18.5354 196.539 17.1323 196.539H11.0769V196.527Z" fill="#132644"/>
<path d="M12.4777 216C12.2603 216 12.0428 215.915 11.8712 215.733L9.58218 213.308C9.25028 212.956 9.25028 212.374 9.58218 212.023L11.8712 209.597C12.2031 209.246 12.7524 209.246 13.0843 209.597C13.4162 209.949 13.4162 210.531 13.0843 210.883L11.4019 212.665L13.0843 214.448C13.4162 214.8 13.4162 215.382 13.0843 215.733C12.9127 215.915 12.6952 216 12.4777 216Z" fill="#132644"/>
<path d="M19.5223 216C19.3048 216 19.0873 215.915 18.9157 215.733C18.5838 215.382 18.5838 214.8 18.9157 214.448L20.5981 212.665L18.9157 210.883C18.5838 210.531 18.5838 209.949 18.9157 209.597C19.2476 209.246 19.7969 209.246 20.1288 209.597L22.4178 212.023C22.7497 212.374 22.7497 212.956 22.4178 213.308L20.1288 215.733C19.9572 215.915 19.7397 216 19.5223 216Z" fill="#132644"/>
<path d="M16.0001 29.3332C15.1443 29.3332 14.3381 28.9003 13.7675 28.1458L11.9071 25.6721C11.8698 25.6226 11.721 25.5484 11.6466 25.5484H11.0388C5.86675 25.5484 2.66675 24.1507 2.66675 17.1996V11.0153C2.66675 5.54838 5.55667 2.6665 11.0388 2.6665H18.4807C18.9892 2.6665 19.4109 3.08704 19.4109 3.59415C19.4109 4.10126 18.9892 4.52179 18.4807 4.52179H11.0388C6.59853 4.52179 4.52721 6.58735 4.52721 11.0153V17.1996C4.52721 22.7902 6.44969 23.6931 11.0388 23.6931H11.659C12.2916 23.6931 13.0109 24.0518 13.3954 24.5589L15.2559 27.0326C15.69 27.6016 16.3102 27.6016 16.7443 27.0326L18.6047 24.5589C19.014 24.0147 19.659 23.6931 20.3412 23.6931H20.9613C25.4016 23.6931 27.473 21.6275 27.473 17.1996V13.489C27.473 12.9819 27.8947 12.5614 28.4032 12.5614C28.9117 12.5614 29.3334 12.9819 29.3334 13.489V17.1996C29.3334 22.6665 26.4435 25.5484 20.9613 25.5484H20.3412C20.2419 25.5484 20.1551 25.5979 20.0931 25.6721L18.2326 28.1458C17.6621 28.9003 16.8559 29.3332 16.0001 29.3332Z" fill="#132644"/>
<path d="M15.9998 16.0002C15.2532 16.0002 14.6665 15.4002 14.6665 14.6668C14.6665 13.9335 15.2665 13.3335 15.9998 13.3335C16.7332 13.3335 17.3332 13.9335 17.3332 14.6668C17.3332 15.4002 16.7465 16.0002 15.9998 16.0002Z" fill="#132644"/>
<path d="M21.3333 16.0002C20.5867 16.0002 20 15.4002 20 14.6668C20 13.9335 20.6 13.3335 21.3333 13.3335C22.0667 13.3335 22.6667 13.9335 22.6667 14.6668C22.6667 15.4002 22.08 16.0002 21.3333 16.0002Z" fill="#132644"/>
<path d="M10.6666 16.0002C9.91992 16.0002 9.33325 15.4002 9.33325 14.6668C9.33325 13.9335 9.93325 13.3335 10.6666 13.3335C11.3999 13.3335 11.9999 13.9335 11.9999 14.6668C11.9999 15.4002 11.4133 16.0002 10.6666 16.0002Z" fill="#132644"/>
<path d="M25.3333 10.6665C23.1302 10.6665 21.3333 8.86958 21.3333 6.6665C21.3333 4.46343 23.1302 2.6665 25.3333 2.6665C27.5363 2.6665 29.3333 4.46343 29.3333 6.6665C29.3333 8.86958 27.5363 10.6665 25.3333 10.6665ZM25.3333 4.51266C24.1517 4.51266 23.1794 5.48497 23.1794 6.6665C23.1794 7.84804 24.1517 8.82035 25.3333 8.82035C26.5148 8.82035 27.4871 7.84804 27.4871 6.6665C27.4871 5.48497 26.5148 4.51266 25.3333 4.51266Z" fill="#132644"/>
</svg>
