<svg width="32" height="368" viewBox="0 0 32 368" fill="none" xmlns="http://www.w3.org/2000/svg">
<path fill-rule="evenodd" clip-rule="evenodd" d="M9.66677 57.6665V57.5067C9.66677 54.6163 11.6236 52.0927 14.4228 51.3729C15.4575 51.1068 16.5427 51.1068 17.5774 51.3729C20.3766 52.0927 22.3334 54.6163 22.3334 57.5067V57.6665H24.3349C25.0966 57.6665 25.7431 58.2251 25.8535 58.9788L26.1451 60.9687C26.7192 64.8867 26.7192 68.8674 26.1451 72.7853C25.8679 74.6774 24.3421 76.1401 22.4401 76.3373L21.6016 76.4243C17.8772 76.8105 14.1229 76.8105 10.3986 76.4243L9.5601 76.3373C7.65805 76.1401 6.13233 74.6774 5.8551 72.7853C5.28105 68.8674 5.28105 64.8867 5.8551 60.9687L6.14667 58.9788C6.2571 58.2251 6.90356 57.6665 7.66526 57.6665H9.66677ZM14.9209 53.3099C15.6289 53.1278 16.3713 53.1278 17.0793 53.3099C18.9946 53.8024 20.3334 55.5291 20.3334 57.5067V57.6665H11.6668V57.5067C11.6668 55.5291 13.0056 53.8024 14.9209 53.3099ZM9.66677 59.6665V62.6665C9.66677 63.2188 10.1145 63.6665 10.6668 63.6665C11.2191 63.6665 11.6668 63.2188 11.6668 62.6665V59.6665H20.3334V62.6665C20.3334 63.2188 20.7812 63.6665 21.3334 63.6665C21.8857 63.6665 22.3334 63.2188 22.3334 62.6665V59.6665H23.9329L24.1662 61.2587C24.7121 64.9844 24.7121 68.7697 24.1662 72.4954C24.0216 73.4822 23.2259 74.2451 22.2338 74.348L21.3953 74.435C17.8081 74.807 14.1921 74.807 10.6049 74.435L9.7664 74.348C8.77434 74.2451 7.97857 73.4822 7.83398 72.4954C7.28809 68.7697 7.28809 64.9844 7.83398 61.2587L8.06726 59.6665H9.66677Z" fill="#132644"/>
<path fill-rule="evenodd" clip-rule="evenodd" d="M25.5304 103H7.11361L5.54004 100.179C5.36341 99.8627 5.02928 99.6665 4.66675 99.6665H2.66675C2.11446 99.6665 1.66675 100.114 1.66675 100.667C1.66675 101.219 2.11446 101.667 2.66675 101.667H4.07955L5.63247 104.45L9.2139 112.374L9.21758 112.382L9.53302 113.08L5.93724 116.916C5.67869 117.192 5.59775 117.59 5.72806 117.945C5.85837 118.299 6.17764 118.55 6.55323 118.593L9.83074 118.968C13.9303 119.436 18.0699 119.436 22.1695 118.968L25.447 118.593C25.9957 118.531 26.3897 118.035 26.327 117.486C26.2643 116.938 25.7686 116.544 25.2199 116.606L21.9424 116.981C17.9937 117.432 14.0065 117.432 10.0578 116.981L8.75714 116.832L11.3963 114.017C11.4218 113.99 11.4455 113.962 11.4674 113.932L12.4712 114.063C13.8778 114.246 15.2996 114.282 16.7136 114.17C20.0115 113.909 23.0681 112.34 25.202 109.812L25.9728 108.899C25.9987 108.868 26.0227 108.836 26.0447 108.802L27.4812 106.613C28.4994 105.062 27.3863 103 25.5304 103ZM11.5418 111.925C11.3212 111.897 11.1311 111.756 11.0382 111.555L11.0364 111.551L8.07573 105H25.5304C25.7955 105 25.9545 105.294 25.8091 105.516L24.4056 107.655L23.6737 108.522C21.8844 110.642 19.3213 111.958 16.5559 112.176C15.2805 112.277 13.998 112.245 12.7293 112.08L11.5418 111.925Z" fill="#132644"/>
<path d="M8.66675 120.667C7.56218 120.667 6.66675 121.562 6.66675 122.667C6.66675 123.771 7.56218 124.667 8.66675 124.667C9.77132 124.667 10.6667 123.771 10.6667 122.667C10.6667 121.562 9.77132 120.667 8.66675 120.667Z" fill="#132644"/>
<path d="M21.3334 122.667C21.3334 121.562 22.2288 120.667 23.3334 120.667C24.438 120.667 25.3334 121.562 25.3334 122.667C25.3334 123.771 24.438 124.667 23.3334 124.667C22.2288 124.667 21.3334 123.771 21.3334 122.667Z" fill="#132644"/>
<path fill-rule="evenodd" clip-rule="evenodd" d="M15.4822 196.403C15.8068 196.31 16.1492 196.31 16.4739 196.403C17.1639 196.598 17.8603 196.78 18.559 196.962C21.8401 197.818 25.1724 198.687 28.1371 201.102L29.5023 202.214C30.0561 202.665 30.3332 203.332 30.3334 204V213.333C30.3334 213.886 29.8857 214.333 29.3334 214.333C28.7811 214.333 28.3334 213.886 28.3334 213.333V206.742L28.1162 206.92C27.0889 207.758 26.0171 208.409 24.9185 208.937C24.971 209.059 25.0001 209.193 25.0001 209.333V215.059C25.0001 216.57 24.0731 217.926 22.6653 218.475L17.3319 220.554C16.4754 220.888 15.5247 220.888 14.6682 220.554L9.33489 218.475C7.92704 217.926 7.00008 216.57 7.00008 215.059V209.333C7.00008 209.189 7.03065 209.052 7.08566 208.928C5.97852 208.397 4.89838 207.742 3.86307 206.899L2.49782 205.787C1.39027 204.885 1.38969 203.116 2.49628 202.213L3.88398 201.081C6.82724 198.679 10.136 197.815 13.3928 196.965C14.093 196.782 14.7909 196.6 15.4822 196.403ZM28.3334 204.001C28.3334 203.881 28.2848 203.802 28.2393 203.764L26.8741 202.652C24.0001 200.667 21.4392 199.791 18.1866 198.936C17.4714 198.748 16.736 198.555 15.9787 198.341C15.2181 198.557 14.4799 198.751 13.7624 198.94C10.5358 199.789 7.72439 200.528 5.14846 202.63L3.76075 203.763C3.71517 203.8 3.6667 203.879 3.66675 203.999C3.6668 204.119 3.71532 204.199 3.76086 204.236L5.12611 205.348C7.72388 207.464 10.561 208.209 13.8136 209.064C14.5288 209.252 15.2642 209.445 16.0215 209.659C16.782 209.444 17.5201 209.249 18.2376 209.061C21.4642 208.212 24.2758 207.472 26.8517 205.37L28.2394 204.238C28.285 204.201 28.3334 204.121 28.3334 204.001ZM18.6074 211.036C20.0738 210.653 21.5507 210.267 23.0001 209.74V215.059C23.0001 215.746 22.5787 216.362 21.9388 216.612L16.6055 218.691C16.2161 218.843 15.784 218.843 15.3947 218.691L10.0614 216.612C9.42143 216.362 9.00008 215.746 9.00008 215.059V209.728C10.4651 210.262 11.9583 210.651 13.4411 211.038C14.1398 211.22 14.8363 211.402 15.5263 211.598C15.8509 211.69 16.1934 211.69 16.518 211.597C17.2093 211.401 17.9072 211.219 18.6074 211.036Z" fill="#132644"/>
<path fill-rule="evenodd" clip-rule="evenodd" d="M15.2203 339.193C15.7285 339.037 16.2718 339.037 16.78 339.193L20.761 340.417C22.8378 341.055 24.8102 341.994 26.6156 343.203C28.0198 344.143 27.3542 346.333 25.6643 346.333H6.33604C4.6461 346.333 3.98051 344.143 5.38471 343.203C7.19009 341.994 9.16248 341.055 11.2393 340.417L15.2203 339.193ZM16.1924 341.105C16.0671 341.067 15.9332 341.067 15.8079 341.105L11.8269 342.329C10.2525 342.813 8.74404 343.486 7.33442 344.333H24.6659C23.2563 343.486 21.7478 342.813 20.1734 342.329L16.1924 341.105Z" fill="#132644"/>
<path d="M5.66683 364C5.66683 363.448 6.11454 363 6.66683 363H25.3335C25.8858 363 26.3335 363.448 26.3335 364C26.3335 364.552 25.8858 365 25.3335 365H6.66683C6.11454 365 5.66683 364.552 5.66683 364Z" fill="#132644"/>
<path d="M8.3335 358.666C8.3335 359.219 8.78121 359.666 9.3335 359.666C9.88578 359.666 10.3335 359.219 10.3335 358.666L10.3335 350.666C10.3335 350.114 9.88578 349.666 9.3335 349.666C8.78121 349.666 8.3335 350.114 8.3335 350.666L8.3335 358.666Z" fill="#132644"/>
<path d="M16.0002 359.666C15.4479 359.666 15.0002 359.219 15.0002 358.666L15.0002 350.666C15.0002 350.114 15.4479 349.666 16.0002 349.666C16.5524 349.666 17.0002 350.114 17.0002 350.666V358.666C17.0002 359.219 16.5524 359.666 16.0002 359.666Z" fill="#132644"/>
<path d="M21.6668 358.666C21.6668 359.219 22.1145 359.666 22.6668 359.666C23.2191 359.666 23.6668 359.219 23.6668 358.666V350.666C23.6668 350.114 23.2191 349.666 22.6668 349.666C22.1145 349.666 21.6668 350.114 21.6668 350.666V358.666Z" fill="#132644"/>
<path fill-rule="evenodd" clip-rule="evenodd" d="M14.9999 151.717C10.131 152.218 6.33325 156.332 6.33325 161.333C6.33325 166.672 10.6612 171 15.9999 171C21.001 171 25.1151 167.202 25.6155 162.333H15.9999C15.4476 162.333 14.9999 161.885 14.9999 161.333V151.717ZM4.33325 161.333C4.33325 154.89 9.5566 149.666 15.9999 149.666C16.5522 149.666 16.9999 150.114 16.9999 150.666V160.333H26.6666C27.2189 160.333 27.6666 160.781 27.6666 161.333C27.6666 167.776 22.4432 173 15.9999 173C9.5566 173 4.33325 167.776 4.33325 161.333Z" fill="#132644"/>
<path fill-rule="evenodd" clip-rule="evenodd" d="M20.6666 150.231V156.666H27.1017C26.351 153.487 23.8458 150.982 20.6666 150.231ZM19.9973 148.082C24.8244 148.683 28.6504 152.509 29.2511 157.336C29.342 158.066 28.7363 158.666 27.9999 158.666H19.3333C18.9651 158.666 18.6666 158.368 18.6666 158V149.333C18.6666 148.597 19.2665 147.991 19.9973 148.082Z" fill="#132644"/>
<path d="M12.6665 260.333C12.1142 260.333 11.6665 260.781 11.6665 261.333C11.6665 261.886 12.1142 262.333 12.6665 262.333H14.9998V264.667C14.9998 265.219 15.4475 265.667 15.9998 265.667C16.5521 265.667 16.9998 265.219 16.9998 264.667V262.333H19.3331C19.8854 262.333 20.3331 261.886 20.3331 261.333C20.3331 260.781 19.8854 260.333 19.3331 260.333H16.9998V258C16.9998 257.448 16.5521 257 15.9998 257C15.4475 257 14.9998 257.448 14.9998 258V260.333H12.6665Z" fill="#132644"/>
<path fill-rule="evenodd" clip-rule="evenodd" d="M9.66646 247.282V248.932C9.17408 248.969 8.68194 249.011 8.1901 249.056C5.96464 249.264 4.26294 251.131 4.26294 253.366V263.967C4.26294 266.202 5.96464 268.07 8.1901 268.277C13.3853 268.761 18.6143 268.761 23.8095 268.277C26.0349 268.07 27.7366 266.202 27.7366 263.967V253.366C27.7366 251.131 26.0349 249.264 23.8095 249.056C23.3176 249.011 22.8255 248.969 22.3331 248.932V247.282C22.3331 246.127 21.4881 245.145 20.3459 244.974L18.7194 244.73C16.9164 244.46 15.0832 244.46 13.2802 244.73L11.6537 244.974C10.5115 245.145 9.66646 246.127 9.66646 247.282ZM18.4227 246.708C16.8164 246.467 15.1832 246.467 13.5769 246.708L11.9503 246.952C11.7872 246.977 11.6665 247.117 11.6665 247.282V248.805C14.5534 248.656 17.4462 248.656 20.3331 248.805V247.282C20.3331 247.117 20.2124 246.977 20.0492 246.952L18.4227 246.708ZM23.624 251.048C18.5522 250.575 13.4474 250.575 8.37557 251.048C7.17838 251.159 6.26294 252.164 6.26294 253.366V253.667H25.7366V253.366C25.7366 252.164 24.8212 251.159 23.624 251.048ZM25.7366 255.667H6.26294V263.967C6.26294 265.17 7.17838 266.174 8.37557 266.286C13.4474 266.758 18.5522 266.758 23.624 266.286C24.8212 266.174 25.7366 265.17 25.7366 263.967V255.667Z" fill="#132644"/>
<path fill-rule="evenodd" clip-rule="evenodd" d="M19.4759 14.3302C20.5684 15.1755 20.5684 16.8248 19.4759 17.6701C16.5971 19.8976 13.3826 21.6533 9.95258 22.8715L9.33117 23.0922C7.96648 23.5769 6.53073 22.6536 6.34676 21.2508C5.89385 17.7974 5.89385 14.2029 6.34676 10.7495C6.53073 9.34671 7.96647 8.4234 9.33117 8.90809L9.95257 9.12879C13.3826 10.347 16.5971 12.1027 19.4759 14.3302ZM18.252 16.0884C18.3097 16.0437 18.3097 15.9566 18.252 15.912C15.5408 13.8142 12.5135 12.1607 9.28321 11.0135L8.66181 10.7928C8.52821 10.7453 8.35257 10.8358 8.32978 11.0095C7.89951 14.2903 7.89951 17.71 8.32978 20.9908C8.35257 21.1645 8.5282 21.255 8.66181 21.2076L9.28321 20.9869C12.5135 19.8396 15.5408 18.1861 18.252 16.0884Z" fill="#132644"/>
<path fill-rule="evenodd" clip-rule="evenodd" d="M24 8.3335C24.5523 8.3335 25 8.78121 25 9.3335V22.6668C25 23.2191 24.5523 23.6668 24 23.6668C23.4478 23.6668 23 23.2191 23 22.6668V9.3335C23 8.78121 23.4478 8.3335 24 8.3335Z" fill="#132644"/>
<path fill-rule="evenodd" clip-rule="evenodd" d="M16.8598 295.018C16.3309 294.7 15.6693 294.7 15.1403 295.018L14.4519 295.433C12.6103 296.542 10.5428 297.222 8.40252 297.424L7.96882 297.465C7.79759 297.481 7.66675 297.625 7.66675 297.796V299.988C7.66675 303.332 9.02412 306.532 11.4279 308.856L15.7684 313.052C15.8976 313.177 16.1026 313.177 16.2318 313.052L20.5722 308.856C22.976 306.532 24.3334 303.332 24.3334 299.988V297.796C24.3334 297.625 24.2026 297.481 24.0313 297.465L23.5976 297.424C21.4574 297.222 19.3899 296.542 17.5482 295.433L16.8598 295.018ZM14.1086 293.305C15.2723 292.604 16.7279 292.604 17.8915 293.305L18.5799 293.719C20.1646 294.674 21.9436 295.259 23.7852 295.433L24.2189 295.473C25.4175 295.586 26.3334 296.593 26.3334 297.796V299.988C26.3334 303.874 24.7559 307.593 21.9623 310.294L17.6218 314.49C16.7174 315.364 15.2827 315.364 14.3783 314.49L10.0378 310.294C7.24423 307.593 5.66675 303.874 5.66675 299.988V297.796C5.66675 296.593 6.58265 295.586 7.78122 295.473L8.21493 295.433C10.0565 295.259 11.8356 294.674 13.4202 293.719L14.1086 293.305Z" fill="#132644"/>
</svg>
