<svg width="27" height="32" viewBox="0 0 27 32" fill="none" xmlns="http://www.w3.org/2000/svg">
<g id="Integrations">
<path id="Vector" d="M9.1335 17.3337L11.0668 15.4003C11.3335 15.1337 11.4615 14.8225 11.4508 14.467C11.4402 14.1114 11.3122 13.8003 11.0668 13.5337C10.8002 13.267 10.4833 13.1279 10.1162 13.1163C9.74905 13.1048 9.43261 13.2328 9.16683 13.5003L6.26683 16.4003C6.00016 16.667 5.86683 16.9781 5.86683 17.3337C5.86683 17.6892 6.00016 18.0003 6.26683 18.267L9.16683 21.167C9.4335 21.4337 9.75039 21.5617 10.1175 21.551C10.4846 21.5403 10.8011 21.4012 11.0668 21.1337C11.3113 20.867 11.4393 20.5559 11.4508 20.2003C11.4624 19.8448 11.3344 19.5337 11.0668 19.267L9.1335 17.3337ZM17.5335 17.3337L15.6002 19.267C15.3335 19.5337 15.2055 19.8448 15.2162 20.2003C15.2268 20.5559 15.3548 20.867 15.6002 21.1337C15.8668 21.4003 16.1837 21.539 16.5508 21.5497C16.9179 21.5603 17.2344 21.4328 17.5002 21.167L20.4002 18.267C20.6668 18.0003 20.8002 17.6892 20.8002 17.3337C20.8002 16.9781 20.6668 16.667 20.4002 16.4003L17.5002 13.5003C17.2335 13.2337 16.9166 13.1057 16.5495 13.1163C16.1824 13.127 15.8659 13.2661 15.6002 13.5337C15.3557 13.8003 15.2282 14.1114 15.2175 14.467C15.2068 14.8225 15.3344 15.1337 15.6002 15.4003L17.5335 17.3337ZM4.00016 29.3337C3.26683 29.3337 2.63883 29.0723 2.11616 28.5497C1.5935 28.027 1.33261 27.3994 1.3335 26.667V8.00033C1.3335 7.26699 1.59483 6.63899 2.1175 6.11633C2.64016 5.59366 3.26772 5.33277 4.00016 5.33366H9.60016C9.88905 4.53366 10.3726 3.88921 11.0508 3.40033C11.7291 2.91144 12.4899 2.66699 13.3335 2.66699C14.1779 2.66699 14.9393 2.91144 15.6175 3.40033C16.2957 3.88921 16.7788 4.53366 17.0668 5.33366H22.6668C23.4002 5.33366 24.0282 5.59499 24.5508 6.11766C25.0735 6.64033 25.3344 7.26788 25.3335 8.00033V26.667C25.3335 27.4003 25.0722 28.0283 24.5495 28.551C24.0268 29.0737 23.3993 29.3345 22.6668 29.3337H4.00016ZM4.00016 26.667H22.6668V8.00033H4.00016V26.667ZM13.3335 7.00033C13.6224 7.00033 13.861 6.90566 14.0495 6.71633C14.2379 6.52699 14.3326 6.28833 14.3335 6.00033C14.3335 5.71144 14.2388 5.47277 14.0495 5.28433C13.8602 5.09588 13.6215 5.00121 13.3335 5.00033C13.0446 5.00033 12.8059 5.09499 12.6175 5.28433C12.4291 5.47366 12.3344 5.71233 12.3335 6.00033C12.3335 6.28921 12.4282 6.52788 12.6175 6.71633C12.8068 6.90477 13.0455 6.99944 13.3335 7.00033Z" fill="white"/>
</g>
</svg>
