<svg width="28" height="28" viewBox="0 0 28 28" fill="none" xmlns="http://www.w3.org/2000/svg">
<path d="M10.5 12.6875C10.5 12.4459 10.7219 12.25 10.9957 12.25H17.0043C17.2781 12.25 17.5 12.4459 17.5 12.6875C17.5 12.9291 17.2781 13.125 17.0043 13.125H10.9957C10.7219 13.125 10.5 12.9291 10.5 12.6875Z" fill="#132644" stroke="#132644" stroke-width="0.5"/>
<path d="M10.5 15.3125C10.5 15.0709 10.7219 14.875 10.9957 14.875H17.0043C17.2781 14.875 17.5 15.0709 17.5 15.3125C17.5 15.5541 17.2781 15.75 17.0043 15.75H10.9957C10.7219 15.75 10.5 15.5541 10.5 15.3125Z" fill="#132644" stroke="#132644" stroke-width="0.5"/>
<path d="M10.5 17.9375C10.5 17.6959 10.7219 17.5 10.9957 17.5H17.0043C17.2781 17.5 17.5 17.6959 17.5 17.9375C17.5 18.1791 17.2781 18.375 17.0043 18.375H10.9957C10.7219 18.375 10.5 18.1791 10.5 17.9375Z" fill="#132644" stroke="#132644" stroke-width="0.5"/>
<path fill-rule="evenodd" clip-rule="evenodd" d="M18.4842 6.86974H16.5753C16.3381 5.66366 15.275 4.75391 13.9994 4.75391C12.7238 4.75391 11.6606 5.66366 11.4234 6.86974H9.51498C8.81204 6.86974 8.24219 7.43959 8.24219 8.14253V21.0826C8.24219 21.7856 8.81204 22.3554 9.51498 22.3554H18.4842C19.1871 22.3554 19.757 21.7856 19.757 21.0826V8.14253C19.757 7.43959 19.1871 6.86974 18.4842 6.86974ZM16.5919 7.79541C16.3925 9.0476 15.3077 10.0046 13.9994 10.0046C12.691 10.0046 11.6062 9.0476 11.4068 7.79541H9.51498C9.32327 7.79541 9.16786 7.95082 9.16786 8.14253V21.0826C9.16786 21.2744 9.32327 21.4298 9.51498 21.4298H18.4842C18.6759 21.4298 18.8313 21.2744 18.8313 21.0826V8.14253C18.8313 7.95082 18.6759 7.79541 18.4842 7.79541H16.5919ZM13.9844 9.15691C14.9425 9.15691 15.7191 8.38027 15.7191 7.42223C15.7191 6.46419 14.9425 5.68755 13.9844 5.68755C13.0264 5.68755 12.2498 6.46419 12.2498 7.42223C12.2498 8.38027 13.0264 9.15691 13.9844 9.15691Z" fill="#132644"/>
<path d="M16.5753 6.86974L16.33 6.91798L16.3697 7.11974H16.5753V6.86974ZM11.4234 6.86974V7.11974H11.629L11.6687 6.91798L11.4234 6.86974ZM16.5919 7.79541V7.54541H16.3786L16.3451 7.75609L16.5919 7.79541ZM11.4068 7.79541L11.6537 7.75609L11.6201 7.54541H11.4068V7.79541ZM16.5753 7.11974H18.4842V6.61974H16.5753V7.11974ZM13.9994 5.00391C15.1532 5.00391 16.1154 5.82688 16.33 6.91798L16.8206 6.82149C16.5608 5.50044 15.3967 4.50391 13.9994 4.50391V5.00391ZM11.6687 6.91798C11.8833 5.82688 12.8455 5.00391 13.9994 5.00391V4.50391C12.602 4.50391 11.4379 5.50044 11.1781 6.82149L11.6687 6.91798ZM9.51498 7.11974H11.4234V6.61974H9.51498V7.11974ZM8.49219 8.14253C8.49219 7.57766 8.95011 7.11974 9.51498 7.11974V6.61974C8.67397 6.61974 7.99219 7.30152 7.99219 8.14253H8.49219ZM8.49219 21.0826V8.14253H7.99219V21.0826H8.49219ZM9.51498 22.1054C8.95011 22.1054 8.49219 21.6475 8.49219 21.0826H7.99219C7.99219 21.9237 8.67397 22.6054 9.51498 22.6054V22.1054ZM18.4842 22.1054H9.51498V22.6054H18.4842V22.1054ZM19.507 21.0826C19.507 21.6475 19.049 22.1054 18.4842 22.1054V22.6054C19.3252 22.6054 20.007 21.9237 20.007 21.0826H19.507ZM19.507 8.14253V21.0826H20.007V8.14253H19.507ZM18.4842 7.11974C19.049 7.11974 19.507 7.57766 19.507 8.14253H20.007C20.007 7.30152 19.3252 6.61974 18.4842 6.61974V7.11974ZM13.9994 10.2546C15.4325 10.2546 16.6204 9.20637 16.8388 7.83472L16.3451 7.75609C16.1647 8.88884 15.1829 9.75464 13.9994 9.75464V10.2546ZM11.1599 7.83473C11.3784 9.20637 12.5662 10.2546 13.9994 10.2546V9.75464C12.8159 9.75464 11.8341 8.88884 11.6537 7.75609L11.1599 7.83473ZM9.51498 8.04541H11.4068V7.54541H9.51498V8.04541ZM9.41786 8.14253C9.41786 8.08889 9.46134 8.04541 9.51498 8.04541V7.54541C9.1852 7.54541 8.91786 7.81275 8.91786 8.14253H9.41786ZM9.41786 21.0826V8.14253H8.91786V21.0826H9.41786ZM9.51498 21.1798C9.46134 21.1798 9.41786 21.1363 9.41786 21.0826H8.91786C8.91786 21.4124 9.1852 21.6798 9.51498 21.6798V21.1798ZM18.4842 21.1798H9.51498V21.6798H18.4842V21.1798ZM18.5813 21.0826C18.5813 21.1363 18.5378 21.1798 18.4842 21.1798V21.6798C18.814 21.6798 19.0813 21.4124 19.0813 21.0826H18.5813ZM18.5813 8.14253V21.0826H19.0813V8.14253H18.5813ZM18.4842 8.04541C18.5378 8.04541 18.5813 8.08889 18.5813 8.14253H19.0813C19.0813 7.81275 18.814 7.54541 18.4842 7.54541V8.04541ZM16.5919 8.04541H18.4842V7.54541H16.5919V8.04541ZM15.4691 7.42223C15.4691 8.24219 14.8044 8.90691 13.9844 8.90691V9.40691C15.0805 9.40691 15.9691 8.51834 15.9691 7.42223H15.4691ZM13.9844 5.93755C14.8044 5.93755 15.4691 6.60226 15.4691 7.42223H15.9691C15.9691 6.32612 15.0805 5.43755 13.9844 5.43755V5.93755ZM12.4998 7.42223C12.4998 6.60226 13.1645 5.93755 13.9844 5.93755V5.43755C12.8883 5.43755 11.9998 6.32612 11.9998 7.42223H12.4998ZM13.9844 8.90691C13.1645 8.90691 12.4998 8.24219 12.4998 7.42223H11.9998C11.9998 8.51834 12.8883 9.40691 13.9844 9.40691V8.90691Z" fill="#132644"/>
</svg>
