<svg xmlns="http://www.w3.org/2000/svg" width="24" height="24" fill="none"><path fill="#132644" fill-rule="evenodd" d="M4.63 6.347a.75.75 0 0 1 .756.01l7.5 4.5a.75.75 0 0 1 .058 1.248l-7.5 5.5A.75.75 0 0 1 4.25 17V7c0-.27.145-.52.38-.653Zm1.12 1.978v7.195l5.396-3.957L5.75 8.325Z" clip-rule="evenodd"/><path fill="#132644" fill-rule="evenodd" d="M12.63 6.347a.75.75 0 0 1 .756.01l7.5 4.5a.75.75 0 0 1 .058 1.248l-7.5 5.5A.75.75 0 0 1 12.25 17V7c0-.27.145-.52.38-.653Zm1.12 1.978v7.195l5.396-3.957-5.396-3.238Z" clip-rule="evenodd"/></svg>