<svg xmlns="http://www.w3.org/2000/svg" width="24" height="24" fill="none"><path fill="#132644" d="M4.68 3c-.18 0-.353.07-.48.195a.66.66 0 0 0 0 .943c.127.125.3.195.48.195h.335a.69.69 0 0 1 .409.135c.118.088.203.21.244.35l2.157 7.4a2 2 0 0 0 .734 1.046c.354.261.785.403 1.228.403h6.216c.408 0 .806-.12 1.144-.344.338-.224.6-.543.75-.914l2.006-4.914a1.31 1.31 0 0 0-.137-1.242 1.352 1.352 0 0 0-.488-.43 1.382 1.382 0 0 0-.637-.156H7.33L6.974 4.45a2 2 0 0 0-.732-1.047A2.068 2.068 0 0 0 5.015 3H4.68Zm4.454 8.85L7.72 7h10.92l-2.005 4.915a.67.67 0 0 1-.25.304.69.69 0 0 1-.381.114H9.787a.689.689 0 0 1-.409-.135.666.666 0 0 1-.244-.349Zm.988 7.15a2.076 2.076 0 0 0 1.443-.586 1.967 1.967 0 0 0 0-2.828A2.045 2.045 0 0 0 10.122 15c-.541 0-1.06.21-1.443.586A1.98 1.98 0 0 0 8.08 17c0 .53.215 1.04.598 1.414.383.375.902.586 1.443.586Zm0-1.333a.687.687 0 0 1-.481-.196.66.66 0 0 1 0-.942.687.687 0 0 1 .962 0 .66.66 0 0 1 0 .942.688.688 0 0 1-.481.196ZM15.563 19a2.077 2.077 0 0 0 1.443-.586c.19-.186.34-.406.442-.649a1.965 1.965 0 0 0-.442-2.18A2.046 2.046 0 0 0 15.563 15c-.54 0-1.06.21-1.443.586A1.98 1.98 0 0 0 13.523 17c0 .53.215 1.04.597 1.414.383.375.902.586 1.443.586Zm0-1.333a.688.688 0 0 1-.48-.196.66.66 0 0 1 0-.942.688.688 0 0 1 .961 0 .66.66 0 0 1 0 .942.688.688 0 0 1-.48.196Z"/><path fill="#132644" fill-rule="evenodd" d="M13.738 5.891a.75.75 0 0 1 .17 1.047l-.944 1.312H14.5a.75.75 0 0 1 .6 1.2l-1.5 2a.75.75 0 0 1-1.2-.9l.6-.8h-1.5a.75.75 0 0 1-.609-1.188l1.8-2.5a.75.75 0 0 1 1.047-.17Z" clip-rule="evenodd"/></svg>