<svg width="24" height="24" viewBox="0 0 24 24" fill="none" xmlns="http://www.w3.org/2000/svg">
<path fill-rule="evenodd" clip-rule="evenodd" d="M11.1412 3.30939C12.7212 3.114 14.3233 3.40332 15.7352 4.13901C17.1471 4.8747 18.3021 6.02204 19.0472 7.42898C19.7923 8.83592 20.0923 10.4361 19.9074 12.0173C19.8593 12.4288 19.4868 12.7233 19.0754 12.6752C18.664 12.6271 18.3694 12.2546 18.4175 11.8432C18.5103 11.05 18.4522 10.2509 18.251 9.48684H5.95953C5.95061 9.52071 5.94197 9.55467 5.9336 9.58873C5.67948 10.6229 5.69012 11.7007 5.95952 12.7237H12.894C13.3083 12.7237 13.644 13.0595 13.644 13.4737C13.644 13.8879 13.3083 14.2237 12.894 14.2237H6.56767C7.03853 15.0598 7.69483 15.7823 8.49093 16.3327C9.55039 17.0652 10.8074 17.4585 12.0955 17.4605C12.5097 17.4612 12.845 17.7975 12.8443 18.2117C12.8437 18.6259 12.5074 18.9612 12.0932 18.9605C10.5011 18.9581 8.94737 18.4719 7.63785 17.5665C6.32833 16.6611 5.32484 15.3791 4.76035 13.8905C4.19586 12.4019 4.09702 10.7768 4.47693 9.23079C4.85684 7.68472 5.69756 6.29059 6.88769 5.23312C8.07782 4.17566 9.56118 3.50478 11.1412 3.30939ZM6.56769 7.98684H17.6428C17.0389 6.91432 16.1357 6.03913 15.042 5.46925C13.8998 4.87404 12.6036 4.63997 11.3253 4.79805C10.047 4.95613 8.84688 5.4989 7.88401 6.35444C7.35488 6.82459 6.91112 7.37699 6.56769 7.98684Z" fill="#132644"/>
<path fill-rule="evenodd" clip-rule="evenodd" d="M12.1043 3.36238C11.7532 3.14501 11.2921 3.25241 11.0733 3.60304C9.66895 5.85342 8.92444 8.45276 8.92444 11.1054C8.92444 13.758 9.66895 16.3573 11.0733 18.6077C11.2926 18.9591 11.7552 19.0662 12.1066 18.8469C12.458 18.6276 12.5651 18.165 12.3458 17.8136C11.0901 15.8014 10.4244 13.4772 10.4244 11.1054C10.4244 8.89047 11.005 6.7171 12.1043 4.80059C13.3671 7.00075 13.9417 9.53317 13.7478 12.0698C13.7162 12.4828 14.0254 12.8432 14.4384 12.8748C14.8514 12.9063 15.2118 12.5971 15.2434 12.1841C15.4737 9.17209 14.735 6.16531 13.1352 3.6029C12.9163 3.25236 12.4553 3.14505 12.1043 3.36238ZM14.9069 15.0527C14.9069 14.6385 15.2427 14.3027 15.6569 14.3027H19.2095C19.6238 14.3027 19.9595 14.6385 19.9595 15.0527V18.6054C19.9595 19.0196 19.6238 19.3554 19.2095 19.3554C18.7953 19.3554 18.4595 19.0196 18.4595 18.6054V16.8634L15.7925 19.5304C15.4996 19.8233 15.0247 19.8233 14.7318 19.5304C14.4389 19.2375 14.4389 18.7627 14.7318 18.4698L17.3989 15.8027H15.6569C15.2427 15.8027 14.9069 15.4669 14.9069 15.0527Z" fill="#132644"/>
</svg>
