<svg width="40" height="40" viewBox="0 0 40 40" fill="none" xmlns="http://www.w3.org/2000/svg">
<rect x="1.625" y="6.625" width="36.75" height="26.75" fill="white"/>
<rect x="2" y="7" width="36" height="2" fill="#DD2E44"/>
<rect x="2" y="11" width="36" height="2" fill="#DD2E44"/>
<rect x="2" y="15" width="36" height="2" fill="#DD2E44"/>
<rect x="2" y="19" width="36" height="2" fill="#DD2E44"/>
<rect x="2" y="23" width="36" height="2" fill="#DD2E44"/>
<rect x="2" y="27" width="36" height="2" fill="#DD2E44"/>
<rect x="2" y="31" width="36" height="2" fill="#DD2E44"/>
<rect x="1.625" y="6.625" width="36.75" height="26.75" stroke="white" stroke-width="0.75"/>
<rect x="2" y="7" width="18" height="14" fill="#010066"/>
<path d="M10.4485 17.4887C9.53033 17.4709 8.65583 17.0956 8.0128 16.4433C7.36978 15.7911 7.00953 14.9139 7.00944 14.0003C7.00936 13.0867 7.36944 12.2095 8.01233 11.5571C8.65523 10.9048 9.52966 10.5293 10.4478 10.5113C10.9269 10.5113 11.3839 10.6087 11.8 10.7813C11.1117 10.2736 10.2774 9.99965 9.42055 10C8.35424 10 7.3316 10.4214 6.57761 11.1716C5.82361 11.9217 5.40002 12.9391 5.40002 14C5.40002 15.0609 5.82361 16.0783 6.57761 16.8284C7.3316 17.5786 8.35424 18 9.42055 18C10.2774 18.0004 11.1117 17.7264 11.8 17.2187C11.372 17.3971 10.9125 17.4889 10.4485 17.4887Z" fill="#FFCC4D"/>
<path d="M13.4 10.8L13.7556 12.4818L14.8237 11.1167L14.3956 12.7818L15.9663 12.0043L14.8386 13.3237L16.6 13.2874L14.9973 13.9995L16.6 14.7117L14.8386 14.6753L15.9663 15.9948L14.3956 15.2172L14.8237 16.8834L13.7556 15.5173L13.4 17.2L13.0443 15.5173L11.9762 16.8834L12.4043 15.2172L10.8336 15.9948L11.9602 14.6753L10.2 14.7117L11.8026 13.9995L10.2 13.2874L11.9602 13.3237L10.8336 12.0043L12.4043 12.7818L11.9762 11.1167L13.0443 12.4818L13.4 10.8Z" fill="#FFCC4D"/>
</svg>
