<svg width="24" height="24" viewBox="0 0 24 24" fill="none" xmlns="http://www.w3.org/2000/svg">
<path fill-rule="evenodd" clip-rule="evenodd" d="M7.30237 4.25C7.71658 4.25 8.05237 4.58579 8.05237 5V14.2083C8.05237 14.6225 7.71658 14.9583 7.30237 14.9583C6.88815 14.9583 6.55237 14.6225 6.55237 14.2083V5C6.55237 4.58579 6.88815 4.25 7.30237 4.25Z" fill="#132644"/>
<path fill-rule="evenodd" clip-rule="evenodd" d="M16.5107 5.75C15.6535 5.75 14.9586 6.44489 14.9586 7.30208C14.9586 8.15928 15.6535 8.85417 16.5107 8.85417C17.3679 8.85417 18.0628 8.15928 18.0628 7.30208C18.0628 6.44489 17.3679 5.75 16.5107 5.75ZM13.4586 7.30208C13.4586 5.61646 14.8251 4.25 16.5107 4.25C18.1963 4.25 19.5628 5.61646 19.5628 7.30208C19.5628 8.9877 18.1963 10.3542 16.5107 10.3542C14.8251 10.3542 13.4586 8.9877 13.4586 7.30208Z" fill="#132644"/>
<path fill-rule="evenodd" clip-rule="evenodd" d="M7.30208 14.958C6.44489 14.958 5.75 15.6529 5.75 16.5101C5.75 17.3673 6.44489 18.0622 7.30208 18.0622C8.15928 18.0622 8.85417 17.3673 8.85417 16.5101C8.85417 15.6529 8.15928 14.958 7.30208 14.958ZM4.25 16.5101C4.25 14.8245 5.61646 13.458 7.30208 13.458C8.9877 13.458 10.3542 14.8245 10.3542 16.5101C10.3542 18.1957 8.9877 19.5622 7.30208 19.5622C5.61646 19.5622 4.25 18.1957 4.25 16.5101Z" fill="#132644"/>
<path fill-rule="evenodd" clip-rule="evenodd" d="M16.5101 8.85449C16.9243 8.85449 17.2601 9.19028 17.2601 9.60449C17.2601 11.6351 16.4535 13.5825 15.0177 15.0183C13.5818 16.4541 11.6344 17.2607 9.60388 17.2607C9.18967 17.2607 8.85388 16.925 8.85388 16.5107C8.85388 16.0965 9.18967 15.7607 9.60388 15.7607C11.2366 15.7607 12.8025 15.1121 13.957 13.9576C15.1115 12.8031 15.7601 11.2372 15.7601 9.60449C15.7601 9.19028 16.0959 8.85449 16.5101 8.85449Z" fill="#132644"/>
</svg>
