<svg width="28" height="28" viewBox="0 0 28 28" fill="none" xmlns="http://www.w3.org/2000/svg">
<path fill-rule="evenodd" clip-rule="evenodd" d="M8.96875 11.375C8.96875 9.07957 10.8296 7.21875 13.125 7.21875H19.25C21.5454 7.21875 23.4062 9.07957 23.4062 11.375C23.4062 13.6704 21.5454 15.5312 19.25 15.5312H13.125C10.8296 15.5312 8.96875 13.6704 8.96875 11.375ZM13.125 8.53125C11.5544 8.53125 10.2812 9.80444 10.2812 11.375C10.2812 12.9456 11.5544 14.2188 13.125 14.2188H19.25C20.8206 14.2188 22.0937 12.9456 22.0937 11.375C22.0937 9.80444 20.8206 8.53125 19.25 8.53125H13.125Z" fill="#132644"/>
<path fill-rule="evenodd" clip-rule="evenodd" d="M9.99115 11.5938H9.625C7.32957 11.5938 5.46875 13.4546 5.46875 15.75C5.46875 18.0454 7.32957 19.9062 9.625 19.9062H15.75C18.0454 19.9062 19.9062 18.0454 19.9062 15.75C19.9062 15.4567 19.8759 15.1706 19.8181 14.8945C19.659 14.9246 19.4949 14.9403 19.3271 14.9403H18.4768C18.5529 15.1969 18.5938 15.4687 18.5938 15.75C18.5938 17.3206 17.3206 18.5938 15.75 18.5938H9.625C8.05444 18.5938 6.78125 17.3206 6.78125 15.75C6.78125 14.1794 8.05444 12.9062 9.625 12.9062H10.0579C10.0142 12.7163 9.99115 12.5185 9.99115 12.3153V11.5938Z" fill="#132644"/>
</svg>
