<svg width="28" height="28" viewBox="0 0 28 28" fill="none" xmlns="http://www.w3.org/2000/svg">
<path fill-rule="evenodd" clip-rule="evenodd" d="M6.19098 16.8536C6.23254 16.9486 6.29363 17.0368 6.37394 17.1121C6.39055 17.1276 6.40784 17.1425 6.42575 17.1566C6.48661 17.2046 6.55269 17.2422 6.62173 17.2696C6.70307 17.3019 6.78852 17.32 6.87438 17.3241C6.88708 17.3247 6.89979 17.325 6.9125 17.325C6.91254 17.325 6.91259 17.325 6.91263 17.325H12.1625C12.5974 17.325 12.95 16.9724 12.95 16.5375C12.95 16.1026 12.5974 15.75 12.1625 15.75H8.69267L16.2452 7.44224C16.5378 7.12042 16.514 6.62236 16.1922 6.3298C15.8704 6.03724 15.3724 6.06096 15.0798 6.38278L7.7 14.5005V11.2875C7.7 10.8526 7.34742 10.5 6.9125 10.5C6.47758 10.5 6.125 10.8526 6.125 11.2875V16.533V16.5375C6.125 16.6499 6.14855 16.7568 6.19098 16.8536Z" fill="#132644"/>
<path fill-rule="evenodd" clip-rule="evenodd" d="M22.4212 10.9714C22.3797 10.8765 22.3186 10.7883 22.2384 10.7131C22.2211 10.697 22.2032 10.6816 22.1846 10.667C22.1243 10.6198 22.0589 10.5827 21.9906 10.5556C21.9092 10.5233 21.8238 10.5052 21.7379 10.5011C21.7252 10.5005 21.7125 10.5002 21.6998 10.5002C21.6998 10.5002 21.6997 10.5002 21.6997 10.5002H16.4498C16.0149 10.5002 15.6623 10.8528 15.6623 11.2877C15.6623 11.7226 16.0149 12.0752 16.4498 12.0752H19.9196L12.3671 20.383C12.0745 20.7048 12.0983 21.2028 12.4201 21.4954C12.7419 21.788 13.24 21.7642 13.5325 21.4424L20.9123 13.3246V16.5377C20.9123 16.9726 21.2649 17.3252 21.6998 17.3252C22.1347 17.3252 22.4873 16.9726 22.4873 16.5377V11.2921V11.2877C22.4873 11.1752 22.4637 11.0682 22.4212 10.9714Z" fill="#132644"/>
</svg>
