<svg width="28" height="28" viewBox="0 0 28 28" fill="none" xmlns="http://www.w3.org/2000/svg">
<path fill-rule="evenodd" clip-rule="evenodd" d="M15.7456 10.9597H8.62275V16.0538L15.7456 16.0538L15.7456 10.9597ZM8.62275 9.44922C7.78856 9.44922 7.1123 10.1255 7.1123 10.9597V16.0538C7.1123 16.888 7.78856 17.5642 8.62275 17.5642H15.7456C16.5798 17.5642 17.2561 16.888 17.2561 16.0538V10.9597C17.2561 10.1255 16.5798 9.44922 15.7456 9.44922H8.62275Z" fill="#132644"/>
<path d="M13.6564 14.5212C13.6564 15.0814 13.2133 15.5356 12.6666 15.5356C12.1199 15.5356 11.6768 15.0814 11.6768 14.5212C11.6768 13.961 12.1199 13.5068 12.6666 13.5068C13.2133 13.5068 13.6564 13.961 13.6564 14.5212Z" fill="#132644"/>
<path d="M14.8737 14.5212C14.8737 15.0814 14.4306 15.5356 13.8839 15.5356C13.3372 15.5356 12.894 15.0814 12.894 14.5212C12.894 13.961 13.3372 13.5068 13.8839 13.5068C14.4306 13.5068 14.8737 13.961 14.8737 14.5212Z" fill="#132644"/>
<path fill-rule="evenodd" clip-rule="evenodd" d="M17.0198 10.8677C17.0237 10.9112 17.0256 10.9552 17.0256 10.9997V12.2418H17.6469C18.1591 12.2418 18.5744 11.9096 18.5744 11.4998C18.5744 11.09 18.1591 10.7578 17.6469 10.7578H17.0059C17.0118 10.794 17.0165 10.8307 17.0198 10.8677Z" fill="#132644"/>
<path fill-rule="evenodd" clip-rule="evenodd" d="M17.5462 20.4086H10.0162C9.41057 20.4086 8.91828 19.9254 8.91828 19.3326V17.4412H9.13925V19.3326C9.13925 19.7992 9.52847 20.1876 10.0162 20.1876H17.2457L17.2457 20.1853V18.0331C17.2457 17.3102 17.8416 16.7373 18.5664 16.7373H18.7873L20.2126 16.7376C20.2824 16.7376 20.3498 16.7498 20.4123 16.7722V7.85484C20.4123 7.38851 20.0244 7.002 19.5347 7.002H9.13925V9.5265H8.91828V6.78104H8.91819V9.63727H8.58522C8.44694 9.63727 8.31312 9.65632 8.18622 9.69194V9.58684C8.10982 9.60945 8.036 9.63808 7.96533 9.67219V5.84277H19.5347C20.6629 5.84277 21.5863 6.73874 21.5863 7.85484V18.5799L21.4204 18.7485L19.0408 21.1705L18.8676 21.3465H10.0162C8.88822 21.3465 7.96533 20.4473 7.96533 19.3323V17.2955C8.03603 17.3296 8.10987 17.3583 8.18631 17.3809V17.4973C8.31318 17.5329 8.44698 17.5519 8.58522 17.5519H8.91819V19.3327C8.91819 19.9254 9.41049 20.4086 10.0161 20.4086H17.5462C17.5462 20.4086 17.5462 20.4086 17.5462 20.4086ZM18.775 21.1255H18.775L18.821 21.0787L18.775 21.1255ZM19.8556 20.0258L21.2627 18.5937L21.3652 18.4894V18.3449V7.85486C21.3652 6.86537 20.5454 6.06377 19.5346 6.06377H8.5522H8.18631V6.06375H19.5347C20.5455 6.06375 21.3653 6.86535 21.3653 7.85484V18.4894L19.8556 20.0258ZM18.538 16.9586C18.4968 16.9596 18.4563 16.9628 18.4164 16.9681C18.4654 16.9616 18.5154 16.9583 18.5663 16.9583V16.9586H20.2125C20.4144 16.9586 20.5785 17.1192 20.5785 17.3172C20.5785 17.4777 20.4704 17.6138 20.3217 17.6593C20.3541 17.6494 20.3845 17.6352 20.4123 17.6174C20.5124 17.5534 20.5786 17.4428 20.5786 17.3172C20.5786 17.1914 20.5124 17.0808 20.4123 17.0167C20.3549 16.98 20.2863 16.9586 20.2126 16.9586L18.5664 16.9582C18.5569 16.9582 18.5474 16.9584 18.538 16.9586ZM18.4851 17.6841C18.3204 17.7197 18.1989 17.8615 18.1989 18.0331V20.1853C18.1989 20.2697 18.1691 20.3473 18.1192 20.4086H18.4636L18.4636 20.4086H18.1193C18.1687 20.3479 18.1984 20.2711 18.199 20.1876L18.199 20.1853V18.0331C18.199 17.8616 18.3205 17.7197 18.4851 17.6841ZM20.2126 17.8965C20.2824 17.8965 20.3497 17.8843 20.4123 17.8619V18.1097L18.42 20.1377V18.0331C18.42 17.9619 18.4785 17.8965 18.5664 17.8965H20.2126Z" fill="#132644"/>
</svg>
