<svg width="32" height="32" viewBox="0 0 32 32" fill="none" xmlns="http://www.w3.org/2000/svg">
<path d="M16.2739 8.26562C12.1613 8.26562 8.81344 11.6106 8.81195 15.7232C8.8112 17.0378 9.15552 18.3211 9.80833 19.452L8.7959 23.2041L12.7041 22.2806C13.7939 22.8752 15.0206 23.1873 16.2695 23.188H16.2724C20.3842 23.188 23.7307 19.8423 23.7329 15.7305C23.7344 13.7369 22.9592 11.8626 21.5505 10.4524C20.1418 9.04298 18.2697 8.26637 16.2739 8.26562ZM16.2724 9.75947C17.8678 9.76022 19.3672 10.3823 20.4943 11.5086C21.6214 12.6365 22.2405 14.1351 22.239 15.729C22.2376 19.0185 19.5619 21.6942 16.271 21.6942C15.2753 21.6934 14.2891 21.4434 13.4204 20.9691L12.9171 20.6949L12.3613 20.8262L10.8908 21.1734L11.2497 19.84L11.4116 19.2419L11.1023 18.705C10.581 17.8028 10.305 16.7711 10.3058 15.7232C10.3073 12.4352 12.9837 9.75947 16.2724 9.75947ZM13.6334 12.2803C13.5087 12.2803 13.307 12.327 13.1359 12.5137C12.9649 12.6997 12.4824 13.1502 12.4824 14.0674C12.4824 14.9846 13.1505 15.8712 13.2439 15.996C13.3365 16.12 14.5336 18.0617 16.4285 18.8086C18.003 19.4293 18.3228 19.3068 18.6649 19.2754C19.007 19.2448 19.7685 18.8254 19.9239 18.3899C20.0792 17.9545 20.0796 17.5799 20.0333 17.503C19.987 17.4253 19.8626 17.379 19.6759 17.2856C19.4899 17.1922 18.5733 16.7422 18.4023 16.6802C18.2313 16.6182 18.1061 16.5868 17.9822 16.7735C17.8582 16.9603 17.5018 17.379 17.3928 17.503C17.2837 17.6277 17.1754 17.6445 16.9887 17.5511C16.802 17.457 16.2016 17.2596 15.489 16.6247C14.9348 16.131 14.5608 15.5219 14.4518 15.3351C14.3435 15.1491 14.4416 15.047 14.5349 14.9544C14.6186 14.8707 14.7202 14.7366 14.8136 14.6276C14.9062 14.5185 14.9383 14.4408 15.0003 14.3168C15.0623 14.1929 15.0306 14.0834 14.9843 13.9901C14.9379 13.8967 14.5753 12.9761 14.4095 12.6071C14.2698 12.2971 14.1223 12.2899 13.9893 12.2847C13.881 12.2802 13.7574 12.2803 13.6334 12.2803Z" fill="white"/>
</svg>
