<svg xmlns="http://www.w3.org/2000/svg" width="24" height="24" fill="none"><path fill="#132644" fill-rule="evenodd" d="M16 4.25a.75.75 0 0 1 .75.75c0 2.305-.287 3.882-.76 5.022a5.423 5.423 0 0 1-1.78 2.32c-.165.128-.368.274-.547.402-.111.08-.213.152-.29.21a3.262 3.262 0 0 0-.59.537c-.284.347-.533.882-.533 2.009v4a.75.75 0 0 1-1.5 0v-4c0-1.373.313-2.275.873-2.96.267-.325.568-.575.852-.787.144-.108.263-.193.376-.273.142-.1.274-.194.438-.322.49-.38.956-.846 1.315-1.711.37-.891.646-2.252.646-4.447a.75.75 0 0 1 .75-.75Z" clip-rule="evenodd"/><path fill="#132644" fill-rule="evenodd" d="M7 4.25a.75.75 0 0 0-.75.75c0 1.424.11 2.568.304 3.502a.75.75 0 1 0 1.468-.306C7.854 7.39 7.75 6.351 7.75 5A.75.75 0 0 0 7 4.25Zm.715 5.998a.75.75 0 0 0-.047 1.03c.288.335.589.595.873.815a.75.75 0 0 0 .97-1.142l-.765-.712a.75.75 0 0 0-1.031.01Zm2.889 2.414a.75.75 0 0 0-.24 1.033c.21.34.386.862.386 1.805v4a.75.75 0 0 0 1.5 0v-4c0-1.13-.211-1.951-.613-2.597a.75.75 0 0 0-1.033-.24ZM15.47 3.47a.75.75 0 0 1 1.06 0l3 3a.75.75 0 0 1-1.06 1.06L16 5.06l-2.47 2.47a.75.75 0 1 1-1.06-1.06l3-3Z" clip-rule="evenodd"/><path fill="#132644" fill-rule="evenodd" d="M6.47 3.47a.75.75 0 0 1 1.06 0l3 3a.75.75 0 1 1-1.06 1.06L7 5.06 4.53 7.53a.75.75 0 0 1-1.06-1.06l3-3Z" clip-rule="evenodd"/></svg>