<svg width="24" height="24" viewBox="0 0 24 24" fill="none" xmlns="http://www.w3.org/2000/svg">
   <path fill-rule="evenodd" clip-rule="evenodd" d="M12 0C5.3712 0 0 5.3712 0 12C0 18.6288 5.3712 24 12 24C18.6288 24 24 18.6288 24 12C24 5.3712 18.6288 0 12 0Z" fill="#3987F0"/>
   <g clip-path="url(#clip0_3778_5976)">
   <path fill-rule="evenodd" clip-rule="evenodd" d="M7.33331 6.16667C7.33331 5.8445 7.59448 5.58333 7.91665 5.58333L16.0833 5.58333C16.4055 5.58333 16.6666 5.8445 16.6666 6.16667C16.6666 6.48883 16.4055 6.75 16.0833 6.75L7.91665 6.75C7.59448 6.75 7.33331 6.48883 7.33331 6.16667Z" fill="white"/>
   <path fill-rule="evenodd" clip-rule="evenodd" d="M9.66665 16.375C9.66665 16.0528 9.92781 15.7917 10.25 15.7917L13.75 15.7917C14.0721 15.7917 14.3333 16.0528 14.3333 16.375C14.3333 16.6972 14.0721 16.9583 13.75 16.9583L10.25 16.9583C9.92781 16.9583 9.66665 16.6972 9.66665 16.375Z" fill="white"/>
   <path fill-rule="evenodd" clip-rule="evenodd" d="M8.49998 12.5833C8.49998 12.9055 8.76115 13.1667 9.08331 13.1667H14.9166C15.2388 13.1667 15.5 12.9055 15.5 12.5833V9.08333C15.5 8.76117 15.2388 8.5 14.9166 8.5H9.08331C8.76115 8.5 8.49998 8.76117 8.49998 9.08333V12.5833ZM15.5 14.2338C15.3175 14.2982 15.1212 14.3333 14.9166 14.3333H9.08331C8.87878 14.3333 8.68243 14.2982 8.49998 14.2338V17.3667C8.49998 17.5681 8.70181 17.8333 9.08331 17.8333H14.9166C15.2981 17.8333 15.5 17.5681 15.5 17.3667V14.2338ZM9.08331 7.33333C8.17615 7.33333 7.33331 8.00831 7.33331 8.96667V17.3667C7.33331 18.325 8.17615 19 9.08331 19H14.9166C15.8238 19 16.6666 18.325 16.6666 17.3667V8.96667C16.6666 8.00831 15.8238 7.33333 14.9166 7.33333H9.08331Z" fill="white"/>
   </g>
   <defs>
   <clipPath id="clip0_3778_5976">
   <rect width="14" height="14" fill="white" transform="translate(5 5)"/>
   </clipPath>
   </defs>
   </svg>
   