<svg width="28" height="28" viewBox="0 0 28 28" fill="none" xmlns="http://www.w3.org/2000/svg">
<path d="M7.4375 7.95021C7.4375 7.66707 7.66707 7.4375 7.95021 7.4375H10.7529C11.036 7.4375 11.2656 7.66707 11.2656 7.95021V10.7529C11.2656 11.036 11.036 11.2656 10.7529 11.2656H7.95021C7.66707 11.2656 7.4375 11.036 7.4375 10.7529V7.95021ZM10.1719 10.1719V8.53129H8.53129V10.1719H10.1719ZM7.4375 17.2469C7.4375 16.9638 7.66707 16.7342 7.95021 16.7342H10.7529C11.036 16.7342 11.2656 16.9638 11.2656 17.2469V20.0498C11.2656 20.3329 11.036 20.5625 10.7529 20.5625H7.95021C7.66707 20.5625 7.4375 20.3329 7.4375 20.0498V17.2469ZM10.1719 19.4689V17.8283H8.53129V19.4689H10.1719ZM16.7344 7.95021C16.7344 7.66707 16.964 7.4375 17.2471 7.4375H20.0498C20.3329 7.4375 20.5625 7.66707 20.5625 7.95021V10.7529C20.5625 11.036 20.3329 11.2656 20.0498 11.2656H17.2471C16.964 11.2656 16.7344 11.036 16.7344 10.7529V7.95021ZM19.4687 10.1719V8.53129H17.8281V10.1719H19.4687ZM19.4687 12.8721C19.4687 12.5889 19.6982 12.3594 19.9814 12.3594H20.0498C20.3329 12.3594 20.5625 12.5889 20.5625 12.8721V16.2216C20.5625 16.5047 20.3329 16.7342 20.0498 16.7342H17.2471C16.964 16.7342 16.7344 16.5047 16.7344 16.2216V16.1533C16.7344 15.8702 16.964 15.6406 17.2471 15.6406H19.4687V12.8721ZM16.7344 18.3409C16.7344 18.0578 16.964 17.8283 17.2471 17.8283H20.0498C20.3329 17.8283 20.5625 18.0578 20.5625 18.3409V20.0498C20.5625 20.3329 20.3329 20.5625 20.0498 20.5625H19.9814C19.6982 20.5625 19.4687 20.3329 19.4687 20.0498V18.9219H17.8281V20.0498C17.8281 20.3329 17.5985 20.5625 17.3154 20.5625H17.2471C16.964 20.5625 16.7344 20.3329 16.7344 20.0498V18.3409ZM12.3594 7.95021C12.3594 7.66707 12.5889 7.4375 12.8721 7.4375H15.1279C15.4111 7.4375 15.6406 7.66707 15.6406 7.95021V10.7529C15.6406 11.036 15.4111 11.2656 15.1279 11.2656H15.0595C14.7763 11.2656 14.5468 11.036 14.5468 10.7529V8.53129H12.8721C12.5889 8.53129 12.3594 8.30178 12.3594 8.01858V7.95021ZM14.5468 12.8721C14.5468 12.5889 14.7763 12.3594 15.0595 12.3594H17.3154C17.5985 12.3594 17.8281 12.5889 17.8281 12.8721V14.0343C17.8281 14.3174 17.5985 14.547 17.3154 14.547H17.2471C16.964 14.547 16.7344 14.3174 16.7344 14.0343V13.4532H15.6406V15.1279C15.6406 15.4111 15.4111 15.6406 15.1279 15.6406H13.4532V16.7342H15.1279C15.4111 16.7342 15.6406 16.9638 15.6406 17.2469V20.0498C15.6406 20.3329 15.4111 20.5625 15.1279 20.5625H15.0595C14.7763 20.5625 14.5468 20.3329 14.5468 20.0498V17.8283H12.8721C12.5889 17.8283 12.3594 17.5987 12.3594 17.3156V15.0597C12.3594 14.7765 12.5889 14.547 12.8721 14.547H14.5468V12.8721ZM12.8721 18.9219H12.9405C13.2237 18.9219 13.4532 19.1514 13.4532 19.4346V20.0498C13.4532 20.3329 13.2237 20.5625 12.9405 20.5625H12.8721C12.5889 20.5625 12.3594 20.3329 12.3594 20.0498V19.4346C12.3594 19.1514 12.5889 18.9219 12.8721 18.9219ZM10.1376 14.547H10.7529C11.036 14.547 11.2656 14.7765 11.2656 15.0597V15.1279C11.2656 15.4111 11.036 15.6406 10.7529 15.6406H10.1376C9.85447 15.6406 9.62496 15.4111 9.62496 15.1279V15.0597C9.62496 14.7765 9.85447 14.547 10.1376 14.547ZM12.3594 10.1376C12.3594 9.85447 12.5889 9.62496 12.8721 9.62496H12.9405C13.2237 9.62496 13.4532 9.85447 13.4532 10.1376V12.9405C13.4532 13.2237 13.2237 13.4532 12.9405 13.4532H8.53129V15.1279C8.53129 15.4111 8.30178 15.6406 8.01858 15.6406H7.95021C7.66707 15.6406 7.4375 15.4111 7.4375 15.1279V12.8721C7.4375 12.5889 7.66707 12.3594 7.95021 12.3594H12.3594V10.1376Z" fill="#132644"/>
</svg>
