<svg width="36" height="36" fill="none" xmlns="http://www.w3.org/2000/svg"><path d="M26.7 9.878a.816.816 0 0 0-.586-.583A9.272 9.272 0 0 0 21 9.431a9.237 9.237 0 0 0-4.256 2.825l-.916 1.082-2.137-.514a2.288 2.288 0 0 0-2.78 1.11L9.106 17.12a.815.815 0 0 0 .542 1.2l2.522.539a10.937 10.937 0 0 0-.455 1.989.815.815 0 0 0 .233.683l2.544 2.533a.821.821 0 0 0 .651.236c.694-.062 1.38-.196 2.046-.4l.528 2.455a.816.816 0 0 0 .84.644.825.825 0 0 0 .366-.104l3.204-1.8a2.47 2.47 0 0 0 1.128-2.7l-.547-2.255 1.015-.929a9.153 9.153 0 0 0 2.846-4.237 9.117 9.117 0 0 0 .13-5.096Zm-15.617 7.077L12.36 14.7a.676.676 0 0 1 .878-.307l1.41.34-.534.631c-.506.603-.943 1.26-1.305 1.96l-1.726-.369Zm10.233 6.718-2.228 1.252-.353-1.638a9.31 9.31 0 0 0 1.982-1.324l.61-.558.33 1.36a.847.847 0 0 1-.34.908Zm1.326-5.69-3.024 2.766a8.036 8.036 0 0 1-4.243 1.883L13.4 20.667a8.915 8.915 0 0 1 1.97-4.254l1.379-1.628a.79.79 0 0 0 .064-.075l1.177-1.394a7.615 7.615 0 0 1 3.27-2.247 7.645 7.645 0 0 1 3.96-.302 7.502 7.502 0 0 1-.3 3.958 7.535 7.535 0 0 1-2.28 3.257Zm-.758-5.038a1.235 1.235 0 0 0-1.137.757 1.22 1.22 0 0 0 .267 1.336 1.233 1.233 0 0 0 2.101-.867c0-.325-.13-.637-.36-.867a1.234 1.234 0 0 0-.87-.359Z" fill="white"/></svg>
