<svg width="28" height="28" viewBox="0 0 28 28" fill="none" xmlns="http://www.w3.org/2000/svg">
<path d="M21.4058 8.98535L20.5823 9.64409C21.0591 10.5544 21.7131 11.3403 21.7131 13.8847C21.1477 18.6257 17.6671 21.2351 14.08 21.2351V19.2562L10.9702 21.5178L14.0799 24.0622V22.2717C18.8699 22.2717 22.7496 18.392 22.7496 13.602C22.7496 11.9005 22.2511 10.3183 21.4058 8.98535Z" fill="#132644" stroke="#132644" stroke-width="0.4"/>
<path d="M7.30354 18.7081L8.09508 18.0113C7.57583 17.1245 6.88548 16.3703 6.76544 13.8287C6.64635 9.30599 10.4602 6.29562 14.0433 6.12639L14.1367 8.10315L17.1363 5.69728L13.91 3.30245L13.9945 5.09097C9.20979 5.31695 5.51744 9.37537 5.74343 14.1601C5.8237 15.8596 6.3963 17.4165 7.30354 18.7081Z" fill="#132644" stroke="#132644" stroke-width="0.4"/>
<path fill-rule="evenodd" clip-rule="evenodd" d="M14 12.0312C12.9127 12.0312 12.0312 12.9127 12.0312 14C12.0312 15.0873 12.9127 15.9688 14 15.9688C15.0873 15.9688 15.9688 15.0873 15.9688 14C15.9688 12.9127 15.0873 12.0312 14 12.0312ZM10.7188 14C10.7188 12.1878 12.1878 10.7188 14 10.7188C15.8122 10.7188 17.2812 12.1878 17.2812 14C17.2812 15.8122 15.8122 17.2812 14 17.2812C12.1878 17.2812 10.7188 15.8122 10.7188 14Z" fill="#132644"/>
</svg>
