<svg width="24" height="24" viewBox="0 0 24 24" fill="none" xmlns="http://www.w3.org/2000/svg">
<path fill-rule="evenodd" clip-rule="evenodd" d="M9.52624 3.25704C9.81502 3.21726 10.1007 3.34842 10.2588 3.59336L14.6302 10.3676C14.8286 10.6751 14.7761 11.0809 14.506 11.3278L5.50599 19.5536C5.25619 19.7819 4.88443 19.8147 4.59857 19.6335C4.3127 19.4524 4.18356 19.1023 4.28335 18.7789L8.91192 3.77888C8.99787 3.50033 9.23745 3.29681 9.52624 3.25704ZM9.87082 5.75863L6.5299 16.5857L13.0261 10.6483L9.87082 5.75863Z" fill="#132644"/>
<path fill-rule="evenodd" clip-rule="evenodd" d="M13.2219 3.36991C13.57 3.14532 14.0342 3.24539 14.2588 3.59343L18.6302 10.3676C18.8196 10.6612 18.7813 11.0467 18.5377 11.2972L10.5377 19.523C10.2489 19.8199 9.77404 19.8265 9.4771 19.5377C9.18016 19.249 9.17355 18.7741 9.46234 18.4772L17.0461 10.6793L12.9984 4.40675C12.7738 4.05871 12.8739 3.5945 13.2219 3.36991Z" fill="#132644"/>
</svg>
