<svg width="27" height="32" viewBox="0 0 27 32" fill="none" xmlns="http://www.w3.org/2000/svg">
<g id="Webhooks" clip-path="url(#clip0_7417_204852)">
<path id="Vector (Stroke)" fill-rule="evenodd" clip-rule="evenodd" d="M26.2761 3.05752C26.7968 3.57822 26.7968 4.42244 26.2761 4.94313L23.7906 7.42869C24.74 8.87881 24.8996 10.4635 24.6933 11.8251C24.447 13.4508 23.665 14.8876 22.9428 15.6098L20.9428 17.6098C20.4221 18.1305 19.5779 18.1305 19.0572 17.6098L11.7239 10.2765C11.2032 9.75577 11.2032 8.91155 11.7239 8.39085L13.7239 6.39085C14.446 5.66869 15.8829 4.88669 17.5086 4.64037C18.8701 4.43408 20.4549 4.59366 21.905 5.54307L24.3905 3.05752C24.9112 2.53682 25.7554 2.53682 26.2761 3.05752ZM17.9081 7.27695C16.7838 7.44729 15.8873 7.99862 15.6095 8.27647L14.5523 9.33366L20 14.7814L21.0572 13.7242C21.335 13.4463 21.8864 12.5499 22.0567 11.4256C22.2165 10.3712 22.027 9.24629 21.0572 8.27647C20.0874 7.30665 18.9625 7.11719 17.9081 7.27695ZM11.6095 13.0575C12.1302 13.5782 12.1302 14.4224 11.6095 14.9431L9.88562 16.667L12.6667 19.448L14.3905 17.7242C14.9112 17.2035 15.7554 17.2035 16.2761 17.7242C16.7968 18.2449 16.7968 19.0891 16.2761 19.6098L14.5523 21.3337L14.9428 21.7242C15.4635 22.2449 15.4635 23.0891 14.9428 23.6098L12.9428 25.6098C12.2207 26.332 10.7838 27.114 9.15807 27.3603C7.79654 27.5666 6.21182 27.407 4.7617 26.4576L2.27614 28.9431C1.75544 29.4638 0.911223 29.4638 0.390524 28.9431C-0.130175 28.4224 -0.130175 27.5782 0.390524 27.0575L2.87608 24.572C1.92667 23.1218 1.76709 21.5371 1.97338 20.1756C2.2197 18.5499 3.0017 17.113 3.72386 16.3909L5.72386 14.3909C6.24456 13.8702 7.08878 13.8702 7.60948 14.3909L8 14.7814L9.72386 13.0575C10.2446 12.5368 11.0888 12.5368 11.6095 13.0575ZM6.66667 17.2193L5.60948 18.2765C5.33163 18.5543 4.7803 19.4508 4.60995 20.5751C4.4502 21.6295 4.63965 22.7544 5.60948 23.7242C6.5793 24.694 7.70421 24.8835 8.75859 24.7237C9.88286 24.5534 10.7793 24.002 11.0572 23.7242L12.1144 22.667L6.66667 17.2193Z" fill="white"/>
</g>
<defs>
<clipPath id="clip0_7417_204852">
<rect width="26.6667" height="32" fill="white"/>
</clipPath>
</defs>
</svg>
